<?xml version="1.0" standalone="no"?>
<!DOCTYPE svg PUBLIC "-//W3C//DTD SVG 1.1//EN" "http://www.w3.org/Graphics/SVG/1.1/DTD/svg11.dtd" >
<svg>
<metadata>
Created by FontForge 20120731 at Fri Apr 21 14:58:53 2017
 By www
Copyright 2010 Monotype Imaging Inc. All rights reserved.
</metadata>
<defs>
<font id="HarmoniaSansW01-Semibold" horiz-adv-x="569" >
  <font-face 
    font-family="HarmoniaSansW01-Semibold"
    font-weight="600"
    font-stretch="normal"
    units-per-em="1000"
    panose-1="2 11 6 2 3 4 2 2 2 4"
    ascent="730"
    descent="-270"
    x-height="479"
    cap-height="682"
    bbox="-87 -257 1103 967"
    underline-thickness="50"
    underline-position="-100"
    unicode-range="U+0020-2122"
  />
<missing-glyph horiz-adv-x="500" 
d="M12 665h475v-665h-475v665zM250 375l161 243h-323zM60 91l7 10t18 27t25.5 39t29.5 45q35 54 81 121l-161 242v-484zM278 333l162 -243v485zM250 290l-162 -242h323z" />
    <glyph glyph-name=".notdef" horiz-adv-x="500" 
d="M12 665h475v-665h-475v665zM250 375l161 243h-323zM60 91l7 10t18 27t25.5 39t29.5 45q35 54 81 121l-161 242v-484zM278 333l162 -243v485zM250 290l-162 -242h323z" />
    <glyph glyph-name=".null" horiz-adv-x="0" 
 />
    <glyph glyph-name="nonmarkingreturn" horiz-adv-x="333" 
 />
    <glyph glyph-name="space" unicode=" " horiz-adv-x="250" 
 />
    <glyph glyph-name="exclam" unicode="!" horiz-adv-x="256" 
d="M69 112h119v-112h-119v112zM190 682l-12 -480h-99l-12 480h123z" />
    <glyph glyph-name="quotedbl" unicode="&#x22;" horiz-adv-x="406" 
d="M161 721l-10 -232h-86l-9 232h105zM350 721l-10 -232h-86l-8 232h104z" />
    <glyph glyph-name="numbersign" unicode="#" horiz-adv-x="603" 
d="M590 483l-16 -70h-116l-32 -148h118l-14 -72h-119l-42 -193h-80l42 193h-123l-43 -193h-80l43 193h-115l15 72h114l33 148h-118l15 70h118l42 199h81l-44 -199h124l43 199h80l-43 -199h117zM254 413l-33 -148h125l32 148h-124z" />
    <glyph glyph-name="dollar" unicode="$" 
d="M382 501q-5 34 -30 54.5t-68 20.5q-45 0 -70.5 -20t-25.5 -54q0 -18 6.5 -31t21 -23.5t38 -20t58.5 -20.5q107 -33 150.5 -82.5t43.5 -117.5q0 -30 -11 -60t-33 -55.5t-55 -43.5t-77 -25v-83h-90v82q-76 11 -125.5 56t-62.5 125h116q10 -44 37.5 -70t81.5 -26q26 0 46 8
t33.5 21t20.5 29.5t7 33.5q0 22 -6.5 39.5t-22.5 31.5t-41.5 25.5t-63.5 22.5q-51 15 -85.5 33.5t-56.5 41t-31.5 50t-9.5 59.5q0 31 12 57.5t34 47t51.5 34t65.5 18.5v71h90v-70q75 -11 116.5 -55t47.5 -104h-112z" />
    <glyph glyph-name="percent" unicode="%" horiz-adv-x="791" 
d="M41 515q0 50 14.5 86t37.5 58.5t51.5 33t57.5 10.5q26 0 53 -9.5t49 -31.5t36 -57.5t14 -87.5q0 -57 -16 -94.5t-39 -59t-50.5 -30t-49.5 -8.5q-27 0 -55 9.5t-51 31.5t-37.5 58.5t-14.5 90.5zM268 515q0 55 -18.5 83.5t-51.5 28.5q-29 0 -49.5 -25.5t-20.5 -85.5
t19.5 -87.5t51.5 -27.5q27 0 48 26.5t21 87.5zM437 169q0 50 14.5 85.5t37 58t51 33t56.5 10.5q26 0 53.5 -9.5t49.5 -31.5t36 -57t14 -87q0 -58 -16 -95.5t-39.5 -59t-50.5 -30t-50 -8.5q-27 0 -54.5 9.5t-50 31.5t-37 59t-14.5 91zM663 169q0 55 -18.5 83t-51.5 28
q-29 0 -49.5 -25.5t-20.5 -84.5q0 -61 19.5 -88t51.5 -27q27 0 48 26t21 88zM671 682l-461 -682h-89l462 682h88z" />
    <glyph glyph-name="ampersand" unicode="&#x26;" horiz-adv-x="630" 
d="M480 342h102v-9q0 -60 -19.5 -114.5t-48.5 -92.5q23 -28 41 -39t35 -11q8 0 16.5 1t12.5 3v-90q-6 -2 -20.5 -4t-26.5 -2q-35 0 -63.5 15.5t-61.5 53.5q-31 -26 -79 -48.5t-113 -22.5q-56 0 -97.5 16.5t-68.5 44.5t-40.5 64t-13.5 75q0 71 39.5 119t108.5 84
q-10 15 -20.5 33t-19.5 38t-14.5 42.5t-5.5 45.5q0 30 10.5 58.5t33 50.5t57 35.5t81.5 13.5q37 0 69 -10.5t56 -30t37.5 -47.5t13.5 -64q0 -32 -11.5 -58t-32 -48.5t-49.5 -42t-64 -38.5l126 -164q15 29 22.5 61t7.5 71v11zM259 73q42 0 75 15.5t51 32.5l-150 194
q-45 -27 -69 -58.5t-24 -72.5q0 -23 8 -43t23.5 -35t37 -24t48.5 -9zM229 542q0 -32 11.5 -56.5t32.5 -54.5q51 24 79 51t28 65q0 25 -19 46t-57 21q-20 0 -34 -6.5t-23 -17t-13.5 -23.5t-4.5 -25z" />
    <glyph glyph-name="quotesingle" unicode="'" horiz-adv-x="217" 
d="M161 721l-10 -232h-86l-9 232h105z" />
    <glyph glyph-name="parenleft" unicode="(" horiz-adv-x="344" 
d="M219 -215q-40 51 -68.5 110t-47 121t-27.5 125t-9 122q0 60 9 123.5t27.5 125.5t47 120.5t68.5 110.5h108q-41 -52 -69.5 -110.5t-46.5 -120.5t-26 -125.5t-8 -123.5q0 -59 8 -122t26 -125t46.5 -121t69.5 -110h-108z" />
    <glyph glyph-name="parenright" unicode=")" horiz-adv-x="344" 
d="M16 -215q41 51 69.5 110t46.5 121t26.5 125t8.5 123t-8.5 123t-26.5 125t-46.5 121t-69.5 110h109q40 -51 68.5 -110t47 -121t27.5 -125t9 -123t-9 -123t-27.5 -125t-47 -121t-68.5 -110h-109z" />
    <glyph glyph-name="asterisk" unicode="*" horiz-adv-x="423" 
d="M40 627l133 -50l-7 144h90l-8 -144l133 50l28 -83l-138 -37l90 -112l-74 -51l-76 120l-78 -120l-73 51l90 112l-136 36z" />
    <glyph glyph-name="plus" unicode="+" horiz-adv-x="672" 
d="M381 219v-219h-91v219h-212v91h212v220h91v-220h213v-91h-213z" />
    <glyph glyph-name="comma" unicode="," horiz-adv-x="256" 
d="M58 135h141v-64q0 -37 -6 -68t-15 -56.5t-19.5 -46t-20.5 -35.5h-69q20 34 30.5 69.5t14.5 65.5h-56v135z" />
    <glyph glyph-name="hyphen" unicode="-" horiz-adv-x="467" 
d="M76 217v94h322v-94h-322z" />
    <glyph glyph-name="period" unicode="." horiz-adv-x="256" 
d="M58 135h141v-135h-141v135z" />
    <glyph glyph-name="slash" unicode="/" horiz-adv-x="392" 
d="M378 720l-299 -834h-101l298 834h102z" />
    <glyph glyph-name="zero" unicode="0" 
d="M33 345q0 98 23 166.5t59.5 111t82 62t90.5 19.5q43 0 87 -17t79.5 -58.5t58 -110t22.5 -170.5q0 -113 -25.5 -185t-63 -113t-81.5 -56.5t-80 -15.5q-43 0 -88 17t-81.5 59t-59.5 113t-23 178zM418 345q0 131 -35.5 194.5t-97.5 63.5q-26 0 -50 -14t-42.5 -44.5
t-29.5 -79t-11 -117.5q0 -73 10 -124t28 -83.5t42.5 -47t54.5 -14.5q25 0 48.5 14t42 45.5t29.5 82t11 124.5z" />
    <glyph glyph-name="one" unicode="1" 
d="M233 579h-97v103h211v-682h-114v579z" />
    <glyph glyph-name="two" unicode="2" 
d="M74 92l211 235q20 23 38 45.5t31.5 45t21.5 45.5t8 47q0 39 -24.5 66t-70.5 27q-43 0 -70 -30t-27 -79h-118q1 45 16 83t42.5 66.5t68 44.5t91.5 16t90.5 -15t66 -40.5t40.5 -59.5t14 -73q0 -35 -9.5 -66t-27.5 -62t-44 -62.5t-59 -67.5l-144 -155h295v-103h-440v92z" />
    <glyph glyph-name="three" unicode="3" 
d="M78 516q2 37 16.5 71.5t41.5 60t66 41t90 15.5q49 0 87.5 -13.5t65.5 -37.5t41.5 -56.5t14.5 -69.5q0 -30 -10 -55t-26.5 -44.5t-38 -33t-43.5 -19.5v-2q62 -13 101.5 -58.5t39.5 -120.5q0 -42 -14.5 -81t-44 -69t-73.5 -47.5t-102 -17.5q-56 0 -97.5 15.5t-70.5 42.5
t-44.5 64t-18.5 81h115q6 -47 36 -76.5t83 -29.5q51 0 82.5 34.5t31.5 86.5q0 25 -8 46.5t-25.5 38t-43.5 26t-62 9.5h-40v96h40q52 0 83 27.5t31 76.5q0 16 -5.5 32t-16.5 29t-28.5 20.5t-41.5 7.5q-25 0 -43 -7.5t-29.5 -20.5t-18 -29t-7.5 -33h-114z" />
    <glyph glyph-name="four" unicode="4" 
d="M447 142v-142h-112v142h-303v94l304 446h111v-441h87v-99h-87zM140 241h195v210v44.5t1 35.5h-3q-9 -18 -19.5 -36t-29.5 -46z" />
    <glyph glyph-name="five" unicode="5" 
d="M211 432q14 4 31.5 6t33.5 2q54 0 99 -15.5t76.5 -44.5t49 -70.5t17.5 -93.5q0 -44 -15.5 -86.5t-45.5 -76.5t-74.5 -54.5t-102.5 -20.5q-55 0 -97 16t-71 43t-45 63t-19 75h121q5 -38 32.5 -66t81.5 -28q23 0 44 9t36.5 25t24.5 39t9 52q0 63 -37.5 97.5t-111.5 34.5
q-35 0 -77.5 -6t-81.5 -16l35 366h347v-103h-245z" />
    <glyph glyph-name="six" unicode="6" 
d="M29 225q0 63 24.5 115t59.5 103l171 239h128l-158 -219q10 4 27 6t31 2q49 -2 90.5 -21t72 -52t47.5 -77t17 -96q0 -51 -19 -96t-53.5 -78.5t-81.5 -53t-102 -19.5q-56 0 -102.5 18.5t-80.5 51t-52.5 78t-18.5 99.5zM147 224q0 -32 10.5 -58.5t29 -45.5t43 -30t53.5 -11
q30 0 55 11t43.5 30t29 45.5t10.5 58.5q0 31 -10 58t-28 46.5t-43.5 31t-56.5 11.5q-30 0 -55 -10.5t-43 -30t-28 -46.5t-10 -60z" />
    <glyph glyph-name="seven" unicode="7" 
d="M507 586l-274 -586h-126l280 579h-315v103h435v-96z" />
    <glyph glyph-name="eight" unicode="8" 
d="M184 508q0 -23 8.5 -42t22 -32.5t31.5 -21t37 -7.5q46 0 74 29t28 74t-28.5 71.5t-72.5 26.5q-41 0 -70.5 -26.5t-29.5 -71.5zM166 195q0 -52 33 -85.5t87 -33.5q52 0 85 30.5t33 88.5q0 54 -33 87t-84 33q-53 0 -87 -33.5t-34 -86.5zM521 190q0 -41 -14.5 -79.5
t-43.5 -67.5t-73.5 -46.5t-104.5 -17.5t-104.5 17t-74 45.5t-44 65.5t-14.5 78q0 69 32 113t89 67v2q-50 21 -75.5 59.5t-25.5 91.5q0 38 15 71.5t43 59t68.5 40.5t90.5 15q49 0 89 -15t68 -40t43 -58t15 -69q0 -58 -28 -98.5t-72 -56.5v-2q60 -22 90.5 -67t30.5 -108z" />
    <glyph glyph-name="nine" unicode="9" 
d="M539 457q0 -63 -24 -115t-60 -103l-171 -239h-127l157 219q-9 -4 -26.5 -6t-31.5 -2q-50 1 -91.5 20t-71.5 52t-46.5 77.5t-16.5 96.5q0 51 19 96t53 78.5t81 53t103 19.5q55 0 101.5 -18.5t80.5 -51t52.5 -78t18.5 -99.5zM421 458q0 31 -10.5 58t-28.5 46t-43 30t-54 11
t-54 -11t-43.5 -30t-29 -46t-10.5 -58t10 -58t28 -46.5t43 -31t56 -11.5q30 0 55 10.5t43 30t28 46.5t10 60z" />
    <glyph glyph-name="colon" unicode=":" horiz-adv-x="264" 
d="M62 468h140v-135h-140v135zM62 135h140v-135h-140v135z" />
    <glyph glyph-name="semicolon" unicode=";" horiz-adv-x="264" 
d="M62 135h140v-64q0 -37 -6 -68t-15 -56.5t-19.5 -46t-20.5 -35.5h-69q21 34 31.5 69.5t14.5 65.5h-56v135zM62 468h140v-135h-140v135z" />
    <glyph glyph-name="less" unicode="&#x3c;" horiz-adv-x="672" 
d="M83 226v78l505 230v-102l-378 -166v-2l378 -165v-103z" />
    <glyph glyph-name="equal" unicode="=" horiz-adv-x="672" 
d="M76 333v90h519v-90h-519zM76 107v90h519v-90h-519z" />
    <glyph glyph-name="greater" unicode="&#x3e;" horiz-adv-x="672" 
d="M83 -4v102l379 165v3l-379 166v102l505 -230v-78z" />
    <glyph glyph-name="question" unicode="?" horiz-adv-x="454" 
d="M327 325q-28 -27 -40 -54.5t-12 -68.5h-100q0 27 2 49.5t7.5 42t15.5 37t27 36.5q20 22 36 39.5t27.5 33.5t17.5 33t6 39q0 38 -24 64.5t-67 26.5q-38 0 -65 -27t-27 -75h-114q1 46 16.5 83.5t43.5 64t66 41t84 14.5q49 0 87 -14.5t64.5 -39.5t40 -58.5t13.5 -71.5
q0 -32 -8.5 -59t-22.5 -51t-33.5 -45t-40.5 -40zM165 112h119v-112h-119v112z" />
    <glyph glyph-name="at" unicode="@" horiz-adv-x="941" 
d="M882 356q0 -59 -15.5 -107.5t-42 -84t-62.5 -55t-77 -19.5q-52 0 -84.5 23.5t-37.5 67.5h-4q-23 -45 -63.5 -68t-79.5 -23q-37 0 -66 14t-48.5 38.5t-30 58.5t-10.5 73q0 47 14 91.5t40.5 79.5t64.5 56.5t85 21.5q38 0 66 -19t45 -49h2l10 58h90l-38 -245
q-2 -14 -3.5 -27t-1.5 -24q0 -23 13 -39.5t45 -16.5q23 0 42 14t33 39.5t21.5 60.5t7.5 76q0 132 -79.5 207t-238.5 75q-79 0 -141 -28t-105.5 -75.5t-66.5 -110t-23 -131.5t23 -126t66 -97.5t104 -62.5t137 -22q62 0 115.5 10t86.5 26l27 -60q-42 -23 -103.5 -35
t-133.5 -12q-90 0 -164.5 26.5t-128.5 76t-84 120t-30 157.5t31 162.5t87 131.5t134.5 88.5t173.5 32.5q102 0 177 -29t124 -77t73 -111t24 -131zM561 345q0 48 -21 76.5t-63 28.5q-29 0 -52 -15t-38.5 -39t-23.5 -55.5t-8 -64.5q0 -52 21.5 -82.5t59.5 -30.5q30 0 53 16
t39 41.5t24.5 58t8.5 66.5z" />
    <glyph glyph-name="A" unicode="A" horiz-adv-x="652" 
d="M278 682h108l259 -682h-123l-61 167h-272l-62 -167h-120zM220 257h210l-63 175q-11 29 -20.5 60t-17.5 58h-5q-8 -28 -18.5 -59.5t-21.5 -59.5z" />
    <glyph glyph-name="B" unicode="B" horiz-adv-x="554" 
d="M71 682h173q106 0 168 -44.5t62 -128.5q0 -29 -9.5 -52.5t-25.5 -41.5t-37 -30.5t-45 -19.5v-2q39 -5 69 -20.5t50 -38.5t30 -51.5t10 -59.5q0 -48 -18 -84t-49.5 -60t-74.5 -36.5t-92 -12.5h-211v682zM396 202q0 49 -33 78t-96 29h-83v-214h92q60 0 90 28.5t30 78.5z
M356 498q0 46 -31.5 68t-84.5 22h-56v-186h61q55 0 83 26t28 70z" />
    <glyph glyph-name="C" unicode="C" horiz-adv-x="764" 
d="M388 704q71 0 126 -20t94.5 -52t64 -71.5t35.5 -78.5h-129q-9 24 -26 46t-41 38.5t-55.5 26t-69.5 9.5q-48 0 -90 -18t-73.5 -51.5t-49.5 -82t-18 -108.5q0 -54 17 -101.5t48 -83.5t74.5 -56.5t95.5 -20.5q39 0 70.5 10.5t56 28.5t42 42t27.5 51h132q-18 -50 -47.5 -92.5
t-70.5 -74t-94 -49.5t-120 -18q-79 0 -144 28t-111 76.5t-71.5 115.5t-25.5 145t26.5 144t74 114.5t112 75.5t140.5 27z" />
    <glyph glyph-name="D" unicode="D" horiz-adv-x="708" 
d="M299 682q92 0 162 -27t117 -73.5t71 -108.5t24 -132q0 -69 -25 -131t-73 -108.5t-118 -74t-160 -27.5h-226v682h228zM297 105q65 0 113 18.5t79.5 51t47 75.5t15.5 91q0 52 -16.5 95.5t-48.5 74.5t-79.5 48.5t-110.5 17.5h-108v-472h108z" />
    <glyph glyph-name="E" unicode="E" horiz-adv-x="535" 
d="M464 578h-276v-175h266v-101h-266v-198h287v-104h-405v682h394v-104z" />
    <glyph glyph-name="F" unicode="F" horiz-adv-x="508" 
d="M464 578h-275v-190h265v-100h-265v-288h-119v682h394v-104z" />
    <glyph glyph-name="G" unicode="G" horiz-adv-x="773" 
d="M738 373v-22q0 -72 -22 -139.5t-66 -119t-109 -82.5t-152 -31q-79 0 -144 29t-111.5 78t-72.5 114.5t-26 138.5q0 77 27 143.5t74 115.5t112 77t141 28q62 0 114.5 -15t93.5 -42t71 -65t47 -84h-128q-25 48 -75.5 76t-119.5 28q-52 0 -95.5 -19t-74.5 -53.5t-48.5 -82
t-17.5 -104.5q0 -60 18.5 -108.5t50.5 -82t76.5 -52t96.5 -18.5q44 0 81 15t65 40.5t45.5 60.5t22.5 76h-257v100h383z" />
    <glyph glyph-name="H" unicode="H" horiz-adv-x="693" 
d="M504 300h-315v-300h-118v682h118v-277h315v277h118v-682h-118v300z" />
    <glyph glyph-name="I" unicode="I" horiz-adv-x="259" 
d="M70 682h118v-682h-118v682z" />
    <glyph glyph-name="J" unicode="J" horiz-adv-x="369" 
d="M189 682h118v-487q0 -59 -12.5 -100t-37.5 -67t-61 -37.5t-82 -11.5q-26 0 -56 6t-48 14v101q17 -8 43.5 -13.5t45.5 -5.5q47 0 68.5 24.5t21.5 84.5v492z" />
    <glyph glyph-name="K" unicode="K" horiz-adv-x="629" 
d="M243 308q-12 -12 -27.5 -28.5t-26.5 -27.5v-252h-118v682h118v-286l272 286h151l-287 -294l320 -388h-151z" />
    <glyph glyph-name="L" unicode="L" horiz-adv-x="485" 
d="M70 682h118v-578h287v-104h-405v682z" />
    <glyph glyph-name="M" unicode="M" horiz-adv-x="819" 
d="M782 0h-114l-36 361q-2 18 -4 40l-4 44t-4 42.5t-3 36.5h-5q-10 -36 -23 -81t-25 -83l-113 -360h-88l-114 368q-11 35 -24.5 76t-21.5 80h-7q-2 -37 -5 -78t-7 -77l-38 -369h-108l79 682h135l120 -371q9 -28 19 -62.5t17 -62.5h4q3 14 8 30.5l10 33t10 32.5t9 29l119 371
h134z" />
    <glyph glyph-name="N" unicode="N" horiz-adv-x="675" 
d="M172 503q0 -13 0.5 -31t1 -37t1 -37t0.5 -31v-367h-105v682h105l203 -308q52 -79 79.5 -124.5t42.5 -73.5h2q0 13 -0.5 31t-1 36.5t-0.5 36v29.5v373h104v-682h-104l-194 293q-32 48 -53 81t-36 57t-24.5 41t-17.5 31h-3z" />
    <glyph glyph-name="O" unicode="O" horiz-adv-x="793" 
d="M156 341q0 -55 18.5 -102t50.5 -81.5t76 -54t95 -19.5t95.5 19.5t76.5 54t50.5 81.5t18.5 102q0 54 -17.5 101t-49 81.5t-75.5 54.5t-98 20q-51 0 -95 -19.5t-76.5 -53.5t-51 -81.5t-18.5 -102.5zM35 341q0 73 27 139t75.5 115.5t115 79t145.5 29.5q84 0 150.5 -30
t113 -80.5t71.5 -116t25 -136.5q0 -75 -27.5 -141t-76 -115.5t-114.5 -78t-143 -28.5q-94 0 -162 33t-112.5 85t-66 117t-21.5 128z" />
    <glyph glyph-name="P" unicode="P" horiz-adv-x="554" 
d="M415 465q0 25 -7.5 46.5t-23.5 37.5t-41.5 25t-61.5 9h-93v-236h91q40 0 66.5 9.5t42 26t21.5 38t6 44.5zM70 682h210q55 0 101.5 -13t80.5 -39.5t53.5 -67t19.5 -95.5q0 -101 -63.5 -159.5t-197.5 -58.5h-86v-249h-118v682z" />
    <glyph glyph-name="Q" unicode="Q" horiz-adv-x="793" 
d="M553 13q-35 -17 -74.5 -26t-82.5 -9q-93 0 -161.5 33t-113 85t-66 117t-21.5 128q0 73 27 139t75.5 115.5t115 79t145.5 29.5q84 0 150.5 -30t113 -80.5t71.5 -116t25 -136.5q0 -81 -31 -150t-86 -119l91 -112l-81 -66zM155 341q0 -55 18.5 -102t51 -81.5t76 -54
t94.5 -19.5q24 0 45.5 4.5t41.5 12.5l-89 110l81 66l94 -117q32 35 50 80.5t18 100.5q0 54 -17.5 101t-49 81.5t-75.5 54.5t-98 20q-51 0 -95 -19.5t-76.5 -53.5t-51 -81.5t-18.5 -102.5z" />
    <glyph glyph-name="R" unicode="R" horiz-adv-x="589" 
d="M589 0h-142l-194 275h-65v-275h-118v682h206q69 0 116 -17.5t76.5 -46t42.5 -65.5t13 -76q0 -36 -11.5 -67t-32 -55t-47 -41t-56.5 -24zM402 474q0 52 -30.5 80.5t-87.5 28.5h-96v-215h97q57 0 87 30t30 76z" />
    <glyph glyph-name="S" unicode="S" horiz-adv-x="555" 
d="M373 520q-5 38 -30 62t-67 24t-67 -23.5t-25 -61.5q0 -42 32.5 -66t89.5 -42q55 -17 92.5 -40t60.5 -51t33.5 -61.5t10.5 -72.5q0 -38 -13.5 -75.5t-41.5 -67.5t-70 -48.5t-99 -18.5q-96 0 -159 52t-77 154h120q8 -49 37 -78.5t80 -29.5q26 0 45.5 9t33 23.5t20.5 33.5
t7 39q0 49 -31.5 78.5t-100.5 51.5q-99 32 -142.5 84t-43.5 125q0 40 16 74t44 58.5t66 38t83 13.5q46 0 83.5 -13.5t65 -38t44 -58.5t19.5 -74h-116z" />
    <glyph glyph-name="T" unicode="T" horiz-adv-x="478" 
d="M180 578h-170v104h458v-104h-170v-578h-118v578z" />
    <glyph glyph-name="U" unicode="U" horiz-adv-x="631" 
d="M316 -22q-51 0 -97 15.5t-81.5 50t-56.5 90.5t-21 137v411h118v-422q0 -82 36 -131t102 -49q38 0 64 13.5t42.5 37.5t23.5 57t7 72v422h117v-409q0 -80 -19.5 -136.5t-53.5 -91.5t-80.5 -51t-100.5 -16z" />
    <glyph glyph-name="V" unicode="V" horiz-adv-x="615" 
d="M360 0h-107l-252 682h127l138 -402q10 -29 22.5 -68.5t20.5 -71.5h2q9 34 21 72.5t23 68.5l139 401h121z" />
    <glyph glyph-name="W" unicode="W" horiz-adv-x="855" 
d="M457 390q-10 42 -15.5 75t-8.5 70h-4q-5 -37 -9.5 -68t-15.5 -74l-90 -393h-123l-179 682h117l97 -400q6 -25 10 -43t7 -32.5t5 -27.5t5 -27h4q5 32 12 67.5t15 71.5l92 391h113l95 -398q11 -43 16 -72t10 -60h4q5 37 11.5 71t12.5 60l90 399h116l-168 -682h-126z" />
    <glyph glyph-name="X" unicode="X" horiz-adv-x="594" 
d="M251 518q14 -22 25.5 -40.5t22.5 -38.5h3q12 22 23 41t25 40l104 162h126l-221 -326l231 -356h-133l-107 173q-14 23 -27.5 46t-27.5 46h-2q-14 -23 -28.5 -47t-28.5 -47l-105 -171h-127l229 352l-221 330h134z" />
    <glyph glyph-name="Y" unicode="Y" horiz-adv-x="570" 
d="M227 274l-218 408h130l115 -223q11 -22 20 -42t16 -40h2q8 21 17 39.5t20 41.5l110 224h123l-217 -407v-275h-118v274z" />
    <glyph glyph-name="Z" unicode="Z" horiz-adv-x="612" 
d="M56 682h500v-98l-371 -480h387v-104h-533v97l371 481h-354v104z" />
    <glyph glyph-name="bracketleft" unicode="[" horiz-adv-x="365" 
d="M301 636h-106v-744h106v-92h-209v928h209v-92z" />
    <glyph glyph-name="backslash" unicode="\" horiz-adv-x="420" 
d="M324 -114l-317 834h101l318 -834h-102z" />
    <glyph glyph-name="bracketright" unicode="]" horiz-adv-x="365" 
d="M64 728h209v-928h-209v92h106v744h-106v92z" />
    <glyph glyph-name="asciicircum" unicode="^" horiz-adv-x="668" 
d="M506 326l-171 281h-3l-170 -281h-105l232 378h90l233 -378h-106z" />
    <glyph glyph-name="underscore" unicode="_" horiz-adv-x="550" 
d="M0 -151h550v-87h-550v87z" />
    <glyph glyph-name="grave" unicode="`" horiz-adv-x="324" 
d="M97 758l147 -142l-50 -60l-160 129z" />
    <glyph glyph-name="a" unicode="a" horiz-adv-x="604" 
d="M538 0h-109v61h-3q-25 -31 -64.5 -54.5t-99.5 -23.5q-41 0 -82 16t-74 48.5t-53.5 80.5t-20.5 112q0 57 19 104t51.5 80t75.5 51.5t92 18.5q30 0 54 -7t43.5 -18.5t34 -26t25.5 -28.5h2v65h109v-479zM147 240q0 -30 8.5 -58.5t26.5 -51t45.5 -36t64.5 -13.5
q28 0 53.5 11.5t45 32t31.5 49t12 63.5q0 36 -11 66t-30 51t-45 32.5t-55 11.5q-37 0 -64.5 -13.5t-45.5 -36t-27 -51t-9 -57.5z" />
    <glyph glyph-name="b" unicode="b" horiz-adv-x="604" 
d="M66 720h109v-302h3q12 13 27 26.5t35.5 24.5t46 18t58.5 7q42 0 82.5 -17t72.5 -49.5t52 -80.5t20 -109q0 -59 -19.5 -106t-52 -80t-74 -51t-86.5 -18q-58 0 -97.5 22.5t-63.5 52.5h-3v-58h-110v720zM457 239q0 30 -9 58.5t-27 50t-45 35t-64 13.5q-29 0 -55 -11.5
t-45 -32t-30 -50t-11 -65.5q0 -35 11.5 -64t31 -49.5t45 -32t54.5 -11.5q36 0 63 13.5t45 36t27 51t9 58.5z" />
    <glyph glyph-name="c" unicode="c" horiz-adv-x="547" 
d="M287 495q51 0 90 -15t66 -38.5t43 -52t22 -54.5h-115q-11 29 -38 47t-69 18q-61 0 -100 -42t-39 -118q0 -34 10 -63.5t29 -51t45 -34t59 -12.5q47 0 72.5 22t37.5 50h116q-10 -33 -28 -63t-46 -53.5t-66 -37.5t-88 -14q-54 0 -101 18.5t-81.5 52.5t-54 81.5t-19.5 105.5
q0 52 18 98.5t51 81t80 54.5t106 20z" />
    <glyph glyph-name="d" unicode="d" horiz-adv-x="604" 
d="M538 0h-109v57h-3q-24 -28 -65 -51t-101 -23q-41 0 -81.5 16t-73 48.5t-53 80.5t-20.5 112q0 56 18.5 103t50 80.5t74.5 52.5t91 19q59 0 96 -22t63 -54h3v301h110v-720zM147 240q0 -30 9 -58.5t27 -51t45 -36t63 -13.5q28 0 54 11.5t46 32t31.5 49t11.5 63.5
q0 36 -11 66t-30.5 51.5t-45 33t-55.5 11.5q-36 0 -63.5 -14t-45.5 -36.5t-27 -51t-9 -57.5z" />
    <glyph glyph-name="e" unicode="e" horiz-adv-x="551" 
d="M275 495q62 0 107.5 -22.5t75 -58t44 -80t14.5 -90.5v-16.5t-2 -16.5h-370q0 -28 11.5 -53.5t31 -44.5t45.5 -30.5t55 -11.5q37 0 62.5 14t44.5 40h115q-12 -27 -31 -53t-46.5 -45.5t-63.5 -31.5t-81 -12q-55 0 -102 19.5t-81 54t-53 82.5t-19 105q0 51 16.5 96.5t48 80
t76.5 54.5t102 20zM275 411q-29 0 -52 -10t-39.5 -26.5t-26.5 -38t-12 -44.5h259q-3 24 -13 45.5t-26.5 38t-39.5 26t-50 9.5z" />
    <glyph glyph-name="f" unicode="f" horiz-adv-x="315" 
d="M21 479h68v79q0 81 41.5 124t121.5 43q43 0 73 -9v-92q-14 4 -27 6t-27 2q-38 0 -54 -20.5t-16 -55.5v-77h107v-94h-107v-385h-112v385h-68v94z" />
    <glyph glyph-name="g" unicode="g" horiz-adv-x="604" 
d="M539 15q0 -132 -61.5 -202t-191.5 -70q-101 0 -163 51t-76 137h112q10 -40 40.5 -67.5t91.5 -27.5q69 0 105 42.5t36 122.5v60h-2q-26 -29 -65.5 -51.5t-97.5 -22.5q-47 0 -89.5 17.5t-74.5 50.5t-51 80t-19 106q0 55 18 101t49.5 80t75.5 53t95 19q31 0 55.5 -7
t44 -18.5t34 -25t24.5 -26.5h3v62h107v-464zM147 241q0 -29 9 -57t27 -50t45 -35.5t63 -13.5q29 0 55 11.5t45.5 31.5t31 48.5t11.5 62.5q0 36 -11 65.5t-30 50t-44.5 32t-55.5 11.5q-36 0 -63.5 -13.5t-46 -36t-27.5 -50.5t-9 -57z" />
    <glyph glyph-name="h" unicode="h" horiz-adv-x="566" 
d="M65 720h112v-301h3q29 41 67 58.5t78 17.5q37 0 70.5 -12.5t59 -39t40.5 -68t15 -99.5v-276h-112v270q0 62 -27.5 94t-75.5 32q-53 0 -85.5 -35.5t-32.5 -105.5v-255h-112v720z" />
    <glyph glyph-name="i" unicode="i" horiz-adv-x="242" 
d="M65 479h112v-479h-112v479zM59 699h124v-114h-124v114z" />
    <glyph glyph-name="j" unicode="j" horiz-adv-x="242" 
d="M177 -45q0 -107 -47 -156.5t-126 -49.5q-30 0 -52 4.5t-39 9.5v94q10 -3 30 -7.5t42 -4.5q38 0 59 24t21 82v528h112v-524zM59 699h124v-114h-124v114z" />
    <glyph glyph-name="k" unicode="k" horiz-adv-x="509" 
d="M214 210l-37 -36v-174h-112v720h112v-420l172 179h136l-194 -197l225 -282h-136z" />
    <glyph glyph-name="l" unicode="l" horiz-adv-x="242" 
d="M65 720h112v-720h-112v720z" />
    <glyph glyph-name="m" unicode="m" horiz-adv-x="866" 
d="M65 479h111v-60h2q23 32 58.5 54t81.5 22q55 0 94 -27.5t53 -64.5q9 17 24.5 33.5t36 29.5t45.5 21t54 8q82 0 131.5 -55.5t49.5 -163.5v-276h-111v277q0 24 -5.5 45.5t-17.5 38t-30 26t-43 9.5q-21 0 -40 -8t-34 -24.5t-24 -42t-9 -60.5v-261h-112v277q0 51 -25 85
t-70 34q-50 0 -79 -35.5t-29 -99.5v-261h-112v479z" />
    <glyph glyph-name="n" unicode="n" 
d="M65 479h111v-60h2q29 41 67.5 58.5t78.5 17.5q37 0 71 -12.5t59.5 -39t40.5 -68t15 -99.5v-276h-112v270q0 62 -27.5 94t-75.5 32q-53 0 -85.5 -36t-32.5 -106v-254h-112v479z" />
    <glyph glyph-name="o" unicode="o" horiz-adv-x="577" 
d="M32 240q0 55 19.5 102t54 81t81.5 53t101 19q56 0 103 -19.5t81 -53.5t53 -81t19 -101q0 -53 -19 -99.5t-53 -81.5t-81 -55.5t-103 -20.5q-55 0 -101.5 20t-81 54.5t-54 81.5t-19.5 101zM146 240q0 -35 11.5 -63.5t31 -49.5t45 -32.5t54.5 -11.5q32 0 58.5 12t45 33
t29 50t10.5 62q0 32 -10 60.5t-28.5 49.5t-45 33.5t-59.5 12.5q-32 0 -58.5 -12t-45 -33t-28.5 -49.5t-10 -61.5z" />
    <glyph glyph-name="p" unicode="p" horiz-adv-x="604" 
d="M66 479h109v-61h3q12 13 27 27t34.5 24.5t45 17.5t58.5 7q46 0 87.5 -18.5t73 -52t50 -80.5t18.5 -105q0 -56 -18.5 -103t-50.5 -81t-75 -52.5t-91 -18.5q-56 0 -95 22.5t-63 52.5h-3v-293h-110v714zM457 239q0 30 -9 58.5t-27 50t-45 35t-64 13.5q-29 0 -55 -11.5
t-45 -32t-30 -50t-11 -65.5q0 -35 11.5 -64t31 -49.5t45 -32t54.5 -11.5q36 0 63 13.5t45 36t27 51t9 58.5z" />
    <glyph glyph-name="q" unicode="q" horiz-adv-x="604" 
d="M538 -235h-109v292h-3q-24 -29 -65 -51.5t-99 -22.5q-40 0 -81 16t-74 48.5t-54 80.5t-21 112q0 56 18.5 103t50.5 80.5t75.5 52.5t93.5 19q29 0 53 -6.5t42.5 -17.5t33.5 -24.5t26 -27.5h3v60h110v-714zM147 240q0 -30 9 -58.5t27 -51t45 -36t63 -13.5q28 0 54 11.5
t46 32t31.5 49t11.5 63.5q0 36 -11 66t-30.5 51.5t-45 33t-55.5 11.5q-36 0 -63.5 -14t-45.5 -36.5t-27 -51t-9 -57.5z" />
    <glyph glyph-name="r" unicode="r" horiz-adv-x="378" 
d="M354 387q-11 2 -24 3.5t-32 1.5q-57 0 -89 -37.5t-32 -112.5v-242h-112v479h110v-68h3q8 15 21 30t30 27t38 19t45 7q14 0 23.5 -0.5t18.5 -2.5v-104z" />
    <glyph glyph-name="s" unicode="s" horiz-adv-x="434" 
d="M283 356q-4 26 -21.5 42t-42.5 16q-29 0 -44.5 -15.5t-15.5 -35.5q0 -11 3.5 -20.5t14 -18.5t30 -18.5t50.5 -19.5q77 -25 108 -64t31 -89q0 -66 -46.5 -108t-129.5 -42q-86 0 -129.5 42.5t-50.5 109.5h104q4 -30 22.5 -50t56.5 -20q32 0 49 17t17 42q0 27 -20.5 46.5
t-79.5 39.5q-68 22 -101.5 57t-33.5 91q0 30 11.5 55t32.5 43t51 28.5t68 10.5q39 0 68.5 -11t50.5 -29.5t33 -44t17 -54.5h-103z" />
    <glyph glyph-name="t" unicode="t" horiz-adv-x="334" 
d="M14 479h60v153h112v-153h119v-94h-119v-214q0 -49 15.5 -66t50.5 -17q14 0 29.5 2.5t28.5 5.5v-91q-19 -5 -41.5 -8t-43.5 -3q-45 0 -74 13t-46 35.5t-24 53.5t-7 68v221h-60v94z" />
    <glyph glyph-name="u" unicode="u" horiz-adv-x="557" 
d="M493 0h-111v59h-3q-30 -42 -67 -58.5t-75 -16.5q-30 0 -62 10.5t-57.5 35t-42 65t-16.5 101.5v283h112v-270q0 -61 26.5 -93.5t71.5 -32.5q51 0 81.5 35.5t30.5 105.5v255h112v-479z" />
    <glyph glyph-name="v" unicode="v" horiz-adv-x="449" 
d="M275 0h-102l-177 479h116l80 -238q10 -30 18.5 -62.5t13.5 -57.5h4q7 30 14.5 60.5t17.5 59.5l81 238h111z" />
    <glyph glyph-name="w" unicode="w" horiz-adv-x="710" 
d="M375 241q-5 25 -10.5 51.5t-9.5 52.5h-4q-3 -26 -9 -57.5t-14 -66.5l-52 -221h-134l-123 479h110l64 -272q8 -33 11.5 -52t7.5 -43h4q5 23 9.5 47.5t11.5 52.5l66 267h107l67 -271q8 -30 11 -51.5t7 -44.5h3q4 28 8.5 53t8.5 42l66 272h110l-125 -479h-133z" />
    <glyph glyph-name="x" unicode="x" horiz-adv-x="497" 
d="M188 243l-165 236h126l71 -107q9 -14 16 -27t13 -24h3q12 24 27 48l69 110h125l-165 -233l174 -246h-130l-76 115q-9 15 -16 28t-13 24h-3q-14 -25 -31 -53l-74 -114h-126z" />
    <glyph glyph-name="y" unicode="y" horiz-adv-x="452" 
d="M193 -235h-107l88 237l-175 477h115l83 -238q8 -23 17.5 -54t14.5 -56h3q8 30 15 55.5t17 54.5l81 238h111z" />
    <glyph glyph-name="z" unicode="z" horiz-adv-x="484" 
d="M48 479h387v-89l-257 -297h269v-93h-411v89l258 297h-246v93z" />
    <glyph glyph-name="braceleft" unicode="{" horiz-adv-x="382" 
d="M320 657q-38 -1 -54 -21.5t-16 -57.5v-186q0 -42 -20 -77t-62 -52v-2q38 -13 60 -48t22 -88v-177q0 -37 16 -57t54 -22v-84q-90 1 -132.5 44t-42.5 121v188q0 34 -21 58t-62 27v80q41 2 62 26.5t21 57.5v192q0 73 41.5 117t133.5 46v-85z" />
    <glyph glyph-name="bar" unicode="|" horiz-adv-x="376" 
d="M143 -210v1000h89v-1000h-89z" />
    <glyph glyph-name="braceright" unicode="}" horiz-adv-x="382" 
d="M62 742q91 -2 132.5 -46t41.5 -117v-192q0 -33 21 -57.5t62 -26.5v-80q-41 -3 -62 -27t-21 -58v-188q0 -84 -46 -124t-128 -41v84q38 2 54 22t16 57v177q0 53 22 88t60 48v2q-42 17 -62 52t-20 77v186q0 37 -16 57.5t-54 21.5v85z" />
    <glyph glyph-name="asciitilde" unicode="~" horiz-adv-x="668" 
d="M624 294q-34 -57 -75 -86.5t-101 -29.5q-32 0 -64 10t-61 28q-30 19 -54 31t-51 12q-33 0 -56.5 -19t-47.5 -57l-70 46q32 58 73.5 87.5t98.5 29.5q37 0 68.5 -12t57.5 -27q30 -20 56 -31.5t52 -11.5q34 0 59 21.5t45 53.5l70 -45v0z" />
    <glyph glyph-name="uni00A0" unicode="&#xa0;" horiz-adv-x="250" 
 />
    <glyph glyph-name="exclamdown" unicode="&#xa1;" horiz-adv-x="256" 
d="M188 570h-119v112h119v-112zM67 0l12 480h99l12 -480h-123z" />
    <glyph glyph-name="cent" unicode="&#xa2;" 
d="M250 93q-43 8 -80.5 29t-65 53.5t-43.5 75.5t-16 96q0 46 14 88t40.5 75t64.5 56t86 31v85h86v-84q42 -5 74 -21.5t55 -38.5t36.5 -47.5t19.5 -49.5h-113q-9 21 -27.5 37t-44.5 24v-313q31 8 50 26.5t29 41.5h114q-9 -30 -26 -57.5t-41 -50t-55.5 -38t-70.5 -20.5v-91
h-86v93zM159 346q0 -54 24 -94.5t67 -57.5v305q-41 -15 -66 -54.5t-25 -98.5z" />
    <glyph glyph-name="sterling" unicode="&#xa3;" 
d="M415 309h-172q4 -20 6.5 -39.5t2.5 -39.5q0 -39 -13 -64.5t-31 -40.5q20 0 45.5 -7t46.5 -15q24 -8 47 -15t42 -7q28 0 39.5 23t13.5 65h107q-2 -88 -38.5 -139.5t-111.5 -51.5q-33 0 -67 9t-68 20q-29 10 -55 17t-49 7q-29 0 -58.5 -9t-55.5 -25v99q25 8 43.5 21.5
t31 30.5t18.5 35.5t6 36.5q0 24 -3.5 46.5t-8.5 42.5h-87v89h63q-5 23 -10 52t-5 64q0 37 12.5 72t38 61t65 42t92.5 16q47 0 85 -15t65 -41t42.5 -62t17.5 -79h-114q-2 46 -29 73t-66 27q-46 0 -70 -29.5t-24 -76.5q0 -26 3.5 -53t8.5 -51h194v-89z" />
    <glyph glyph-name="currency" unicode="&#xa4;" horiz-adv-x="614" 
d="M491 120l-69 67q-51 -36 -115 -36q-26 0 -57 8t-59 28l-68 -67l-54 55l69 65q-18 28 -27 57t-9 57t8.5 58t27.5 56l-69 66l54 55l68 -67q29 20 59.5 27.5t56.5 7.5q27 0 58 -8.5t57 -26.5l69 67l53 -55l-68 -66q20 -29 28 -58.5t8 -55.5q0 -28 -8.5 -56.5t-27.5 -57.5
q33 -34 68 -65zM435 355q0 28 -11 51t-29 40t-41 26.5t-47 9.5q-27 0 -51 -10.5t-41 -27.5t-27 -40.5t-10 -48.5q0 -26 10 -49.5t27.5 -41t41 -27.5t50.5 -10q26 0 49.5 10t41 27.5t27.5 41t10 49.5z" />
    <glyph glyph-name="yen" unicode="&#xa5;" 
d="M53 362h135l-169 320h122l107 -213q11 -22 21 -43.5t17 -41.5h2q8 21 17 41t20 43l105 214h119l-169 -320h136v-84h-175v-78h175v-84h-175v-116h-113v116h-175v84h175v78h-175v84z" />
    <glyph glyph-name="brokenbar" unicode="&#xa6;" horiz-adv-x="376" 
d="M143 390v300h89v-300h-89zM143 -110v300h89v-300h-89z" />
    <glyph glyph-name="section" unicode="&#xa7;" horiz-adv-x="439" 
d="M390 331q0 -40 -19.5 -69.5t-54.5 -46.5q28 -20 44 -50t16 -67q0 -28 -9.5 -54t-30 -46t-51 -32t-72.5 -12q-78 0 -119 39.5t-46 106.5h95q2 -31 18.5 -50t53.5 -19q33 0 50.5 19t17.5 45q0 32 -24 52.5t-66 38.5q-30 13 -55.5 27.5t-43.5 33.5t-28.5 42.5t-10.5 53.5
q0 38 20 67.5t55 42.5q-29 21 -45.5 49.5t-16.5 66.5q0 28 10 52.5t30 43t49.5 29t68.5 10.5q34 0 61.5 -10t47 -28t30 -42.5t11.5 -52.5h-89q-2 23 -18.5 38.5t-45.5 15.5q-35 0 -49 -18t-14 -36q0 -15 5 -26.5t17.5 -22t33 -21.5t52.5 -24q27 -11 49 -25t38.5 -31.5
t25.5 -39.5t9 -50zM299 325q0 31 -25 49t-74 37q-21 -5 -38 -20t-17 -41q0 -16 5.5 -28t17.5 -22.5t31.5 -20.5t47.5 -22q25 9 38.5 27t13.5 41z" />
    <glyph glyph-name="dieresis" unicode="&#xa8;" horiz-adv-x="324" 
d="M20 695h105v-102h-105v102zM200 695h105v-102h-105v102z" />
    <glyph glyph-name="copyright" unicode="&#xa9;" horiz-adv-x="822" 
d="M412 554q41 0 72 -13t53 -33t35.5 -45.5t19.5 -49.5h-89q-9 30 -33.5 46.5t-59.5 16.5q-51 0 -82 -35t-31 -95q0 -56 31 -93t86 -37q34 0 59 19t34 52h89q-8 -31 -24.5 -58t-40 -47.5t-53.5 -32t-66 -11.5q-45 0 -82 16t-63.5 44t-40.5 66.5t-14 83.5t15 82.5t42 65
t63.5 43t79.5 15.5zM48 341q0 75 28.5 141t78 115.5t115.5 78t141 28.5t141.5 -28.5t115.5 -78t77.5 -115.5t28.5 -141t-28.5 -141t-77.5 -115.5t-115.5 -78t-141.5 -28.5t-141 28.5t-115.5 78t-78 115.5t-28.5 141zM106 341q0 -63 24 -118.5t65.5 -97t97 -65.5t118.5 -24
t119 24t97 65.5t65 97t24 118.5t-24 118.5t-65 97t-97 65.5t-119 24t-118.5 -24t-97 -65.5t-65.5 -97t-24 -118.5z" />
    <glyph glyph-name="ordfeminine" unicode="&#xaa;" horiz-adv-x="384" 
d="M360 329q-14 -7 -39 -7t-44.5 14t-24.5 41q-18 -27 -48 -42.5t-64 -15.5q-54 0 -83.5 29t-29.5 74q0 57 53 96t165 49v4q0 66 -58 66q-60 0 -69 -45h-78q8 52 48 82t100 30q65 0 102.5 -34.5t37.5 -108.5v-124q0 -22 4 -31t15 -9q5 0 13 2v-70zM245 504
q-74 -8 -103.5 -29.5t-29.5 -45.5q0 -19 12.5 -30t35.5 -11q38 0 61.5 26t23.5 69v21z" />
    <glyph glyph-name="guillemotleft" unicode="&#xab;" horiz-adv-x="487" 
d="M369 455l70 -38l-87 -169l87 -169l-70 -39l-128 208zM180 455l70 -38l-88 -169l88 -169l-70 -39l-128 208z" />
    <glyph glyph-name="logicalnot" unicode="&#xac;" horiz-adv-x="672" 
d="M503 104v191h-427v90h519v-281h-92z" />
    <glyph glyph-name="uni00AD" unicode="&#xad;" horiz-adv-x="467" 
d="M79 217v94h322v-94h-322z" />
    <glyph glyph-name="registered" unicode="&#xae;" horiz-adv-x="498" 
d="M35 488q0 45 17 84t46 68.5t68.5 46.5t83.5 17t83 -17t68 -46.5t46 -68.5t17 -84q0 -44 -17 -83t-46 -68t-68 -46t-83 -17t-83.5 17t-68.5 46t-46 68t-17 83zM80 488q0 -35 13.5 -66t36.5 -54t54 -36t66 -13t66 13t54 36t36 54t13 66t-13 66t-36 54t-54 36.5t-66 13.5
t-66 -13.5t-54 -36.5t-36.5 -54t-13.5 -66zM366 375h-64l-60 83h-20v-83h-59v232h97q48 0 69.5 -22.5t21.5 -51.5q0 -26 -14.5 -44.5t-37.5 -24.5zM291 531q0 13 -9 22.5t-33 9.5h-27v-63h27q42 0 42 31z" />
    <glyph glyph-name="macron" unicode="&#xaf;" horiz-adv-x="324" 
d="M21 597v80h282v-80h-282z" />
    <glyph glyph-name="degree" unicode="&#xb0;" horiz-adv-x="369" 
d="M52 564q0 27 10.5 51t28.5 42t42 28.5t52 10.5q27 0 51 -10.5t42 -28.5t28.5 -42t10.5 -51t-10.5 -51t-28.5 -42t-42 -28.5t-51 -10.5q-28 0 -52 10.5t-42 28.5t-28.5 42t-10.5 51zM110 563q0 -32 21.5 -53t53.5 -21q31 0 52.5 21t21.5 53t-21.5 54t-52.5 22
q-32 0 -53.5 -22t-21.5 -54z" />
    <glyph glyph-name="plusminus" unicode="&#xb1;" horiz-adv-x="672" 
d="M78 0v90h516v-90h-516zM381 322v-177h-91v177h-212v91h212v178h91v-178h213v-91h-213z" />
    <glyph glyph-name="uni00B2" unicode="&#xb2;" horiz-adv-x="403" 
d="M56 487l138 147q26 28 45 53.5t19 54.5q0 24 -15 38.5t-41 14.5q-29 0 -43 -17.5t-16 -46.5h-91q1 29 11 55t28.5 45t47 30t67.5 11q34 0 61 -9.5t46.5 -27t30 -40.5t10.5 -50q0 -21 -6 -39.5t-18 -37.5t-30 -40t-43 -47l-75 -77h178v-79h-304v62z" />
    <glyph glyph-name="uni00B3" unicode="&#xb3;" horiz-adv-x="403" 
d="M50 744q2 56 40.5 92t108.5 36q72 0 109.5 -31.5t37.5 -81.5q0 -36 -21.5 -61.5t-53.5 -33.5v-2q42 -10 66 -39t24 -73q0 -27 -10 -52t-30.5 -44.5t-51.5 -31t-72 -11.5q-78 0 -117 37.5t-44 101.5h90q8 -66 72 -66q32 0 50.5 20t18.5 52q0 27 -19 47t-62 20h-30v69h28
q32 0 50 15t18 40q0 22 -13.5 37t-42.5 15t-42 -17t-15 -38h-89z" />
    <glyph glyph-name="acute" unicode="&#xb4;" horiz-adv-x="324" 
d="M228 758l62 -73l-160 -129l-50 60z" />
    <glyph glyph-name="mu" unicode="&#xb5;" horiz-adv-x="570" 
d="M59 479h112v-270q0 -60 24.5 -93t72.5 -33q53 0 82.5 36.5t29.5 108.5v251h113v-338q0 -28 7 -39t27 -11q5 0 11 1t11 2v-98q-11 -4 -25 -6t-27 -2q-51 0 -75.5 19t-32.5 58h-2q-26 -43 -60.5 -62t-73.5 -19q-23 0 -47.5 7t-42.5 21l-3 -2q7 -27 9 -59t2 -63v-101h-112
v692z" />
    <glyph glyph-name="paragraph" unicode="&#xb6;" horiz-adv-x="557" 
d="M431 607v-607h-83v607h-73v-607h-82v371q-36 1 -66 13t-51.5 33t-33 49.5t-11.5 61.5q0 37 13 66t36 48.5t54 29.5t66 10h292v-75h-61z" />
    <glyph glyph-name="periodcentered" unicode="&#xb7;" horiz-adv-x="256" 
d="M61 420h141v-135h-141v135z" />
    <glyph glyph-name="cedilla" unicode="&#xb8;" horiz-adv-x="324" 
d="M202 0l-16 -39q41 -7 63.5 -34.5t22.5 -62.5q0 -47 -30.5 -77t-93.5 -30q-28 0 -57 5t-49 12l24 67q11 -5 32.5 -8.5t38.5 -3.5q24 0 38 8t14 26q0 20 -22.5 31.5t-71.5 11.5l38 94h69z" />
    <glyph glyph-name="uni00B9" unicode="&#xb9;" horiz-adv-x="403" 
d="M163 782h-68v77h160v-434h-92v357z" />
    <glyph glyph-name="ordmasculine" unicode="&#xba;" horiz-adv-x="448" 
d="M29 513q0 43 15.5 78.5t41.5 60.5t61.5 38.5t76.5 13.5q43 0 79 -14.5t61.5 -40.5t40 -61t14.5 -75q0 -41 -14.5 -76t-40.5 -61t-61.5 -40.5t-78.5 -14.5q-41 0 -76.5 13.5t-62 39t-41.5 60.5t-15 79zM119 512q0 -23 8 -43t22 -35t33 -23.5t42 -8.5q46 0 75.5 31t29.5 79
t-29.5 79.5t-75.5 31.5q-44 0 -74.5 -28t-30.5 -83z" />
    <glyph glyph-name="guillemotright" unicode="&#xbb;" horiz-adv-x="487" 
d="M118 40l-70 38l87 169l-87 170l70 38l128 -208zM308 40l-71 38l88 169l-88 170l71 38l128 -208z" />
    <glyph glyph-name="onequarter" unicode="&#xbc;" horiz-adv-x="929" 
d="M163 607h-68v77h160v-434h-92v357zM747 682l-461 -682h-89l462 682h88zM838 75v-75h-90v75h-200v67l202 292h88v-289h63v-70h-63zM627 145h121v131q0 19 0.5 26.5t1.5 21.5h-3q-6 -12 -16 -28.5t-18 -27.5z" />
    <glyph glyph-name="onehalf" unicode="&#xbd;" horiz-adv-x="971" 
d="M163 607h-68v77h160v-434h-92v357zM747 682l-461 -682h-89l462 682h88zM625 62l138 147q26 28 45 53.5t19 54.5q0 24 -15 38.5t-41 14.5q-29 0 -43 -17.5t-16 -46.5h-91q1 29 11 55t28.5 45t47 30t67.5 11q34 0 61 -9.5t46.5 -27t30 -40.5t10.5 -50q0 -21 -6 -39.5
t-18 -37.5t-30 -40t-43 -47l-75 -77h178v-79h-304v62z" />
    <glyph glyph-name="threequarters" unicode="&#xbe;" horiz-adv-x="955" 
d="M50 569q2 56 40.5 92t108.5 36q72 0 109.5 -31.5t37.5 -81.5q0 -36 -21.5 -61.5t-53.5 -33.5v-2q42 -10 66 -39t24 -73q0 -27 -10 -52t-30.5 -44.5t-51.5 -31t-72 -11.5q-78 0 -117 37.5t-44 101.5h90q8 -66 72 -66q32 0 50.5 20t18.5 52q0 27 -19 47t-62 20h-30v69h28
q32 0 50 15t18 40q0 22 -13.5 37t-42.5 15t-42 -17t-15 -38h-89zM774 682l-461 -682h-89l462 682h88zM864 75v-75h-90v75h-200v67l202 292h88v-289h63v-70h-63zM653 145h121v131q0 19 0.5 26.5t1.5 21.5h-3q-6 -12 -16 -28.5t-18 -27.5z" />
    <glyph glyph-name="questiondown" unicode="&#xbf;" horiz-adv-x="454" 
d="M127 357q28 27 40 54.5t12 68.5h100q0 -27 -2 -49.5t-7.5 -42t-16 -37t-26.5 -36.5q-21 -23 -37 -40t-27 -33t-17 -33t-6 -39q0 -38 24 -64.5t66 -26.5q38 0 65 27t27 75h114q-1 -46 -16.5 -83.5t-43 -64t-65.5 -41t-84 -14.5q-50 0 -88 14.5t-64.5 39.5t-40 58.5
t-13.5 71.5q0 32 8.5 59t23 51t34 45t40.5 40zM289 570h-120v112h120v-112z" />
    <glyph glyph-name="Agrave" unicode="&#xc0;" horiz-adv-x="652" 
d="M278 682h108l259 -682h-123l-61 167h-272l-62 -167h-120zM220 257h210l-63 175q-11 29 -20.5 60t-17.5 58h-5q-8 -28 -18.5 -59.5t-21.5 -59.5zM242 902l182 -97l-34 -71l-190 80z" />
    <glyph glyph-name="Aacute" unicode="&#xc1;" horiz-adv-x="652" 
d="M278 682h108l259 -682h-123l-61 167h-272l-62 -167h-120zM220 257h210l-63 175q-11 29 -20.5 60t-17.5 58h-5q-8 -28 -18.5 -59.5t-21.5 -59.5zM468 814l-190 -80l-33 71l182 97z" />
    <glyph glyph-name="Acircumflex" unicode="&#xc2;" horiz-adv-x="652" 
d="M278 682h108l259 -682h-123l-61 167h-272l-62 -167h-120zM220 257h210l-63 175q-11 29 -20.5 60t-17.5 58h-5q-8 -28 -18.5 -59.5t-21.5 -59.5zM489 796l-32 -62l-123 59l-123 -59l-32 62l155 101z" />
    <glyph glyph-name="Atilde" unicode="&#xc3;" horiz-adv-x="652" 
d="M278 682h108l259 -682h-123l-61 167h-272l-62 -167h-120zM220 257h210l-63 175q-11 29 -20.5 60t-17.5 58h-5q-8 -28 -18.5 -59.5t-21.5 -59.5zM165 770q3 55 27 91.5t75 36.5q22 0 38.5 -7.5t36.5 -22.5q37 -28 60 -28q12 0 20.5 10t9.5 39h71q-2 -63 -27.5 -95.5
t-75.5 -32.5q-23 0 -42.5 7.5t-38.5 21.5q-20 16 -31 22.5t-22 6.5q-27 0 -30 -49h-71z" />
    <glyph glyph-name="Adieresis" unicode="&#xc4;" horiz-adv-x="652" 
d="M278 682h108l259 -682h-123l-61 167h-272l-62 -167h-120zM220 257h210l-63 175q-11 29 -20.5 60t-17.5 58h-5q-8 -28 -18.5 -59.5t-21.5 -59.5zM191 875h105v-102h-105v102zM371 875h105v-102h-105v102z" />
    <glyph glyph-name="Aring" unicode="&#xc5;" horiz-adv-x="652" 
d="M278 682h108l259 -682h-123l-61 167h-272l-62 -167h-120zM220 257h210l-63 175q-11 29 -20.5 60t-17.5 58h-5q-8 -28 -18.5 -59.5t-21.5 -59.5zM273 842q0 -26 18 -43.5t44 -17.5q25 0 42 17.5t17 43.5q0 25 -17 42t-42 17q-26 0 -44 -17t-18 -42zM208 842q0 26 9.5 48.5
t27 39.5t40.5 27t50 10q26 0 48.5 -10t39.5 -27t27 -39.5t10 -48.5q0 -27 -10 -50t-27 -40t-39.5 -27t-48.5 -10q-27 0 -50 10t-40.5 27t-27 40t-9.5 50z" />
    <glyph glyph-name="AE" unicode="&#xc6;" horiz-adv-x="893" 
d="M822 578h-261v-175h251v-101h-251v-198h272v-104h-389v167h-233l-87 -167h-130l373 682h455v-104zM256 257h188v321h-18z" />
    <glyph glyph-name="Ccedilla" unicode="&#xc7;" horiz-adv-x="764" 
d="M388 704q71 0 126 -20t94.5 -52t64 -71.5t35.5 -78.5h-129q-9 24 -26 46t-41 38.5t-55.5 26t-69.5 9.5q-48 0 -90 -18t-73.5 -51.5t-49.5 -82t-18 -108.5q0 -54 17 -101.5t48 -83.5t74.5 -56.5t95.5 -20.5q39 0 70.5 10.5t56 28.5t42 42t27.5 51h132q-17 -47 -44 -87.5
t-64.5 -71.5t-85.5 -50.5t-108 -23.5l-7 -18q41 -7 63.5 -34.5t22.5 -62.5q0 -47 -30.5 -77t-93.5 -30q-28 0 -57 5t-49 12l24 67q11 -5 32.5 -8.5t38.5 -3.5q24 0 38 8t14 26q0 43 -94 43l29 74q-71 7 -128.5 37t-98.5 78t-63.5 111t-22.5 137q0 78 26.5 144t74 114.5
t112 75.5t140.5 27z" />
    <glyph glyph-name="Egrave" unicode="&#xc8;" horiz-adv-x="535" 
d="M464 578h-276v-175h266v-101h-266v-198h287v-104h-405v682h394v-104zM183 902l182 -97l-34 -71l-190 80z" />
    <glyph glyph-name="Eacute" unicode="&#xc9;" horiz-adv-x="535" 
d="M464 578h-276v-175h266v-101h-266v-198h287v-104h-405v682h394v-104zM400 814l-190 -80l-33 71l182 97z" />
    <glyph glyph-name="Ecircumflex" unicode="&#xca;" horiz-adv-x="535" 
d="M464 578h-276v-175h266v-101h-266v-198h287v-104h-405v682h394v-104zM426 796l-32 -62l-123 59l-123 -59l-32 62l155 101z" />
    <glyph glyph-name="Edieresis" unicode="&#xcb;" horiz-adv-x="535" 
d="M464 578h-276v-175h266v-101h-266v-198h287v-104h-405v682h394v-104zM127 875h105v-102h-105v102zM307 875h105v-102h-105v102z" />
    <glyph glyph-name="Igrave" unicode="&#xcc;" horiz-adv-x="259" 
d="M70 682h118v-682h-118v682zM40 902l182 -97l-34 -71l-190 80z" />
    <glyph glyph-name="Iacute" unicode="&#xcd;" horiz-adv-x="259" 
d="M70 682h118v-682h-118v682zM266 814l-190 -80l-33 71l182 97z" />
    <glyph glyph-name="Icircumflex" unicode="&#xce;" horiz-adv-x="259" 
d="M70 682h118v-682h-118v682zM287 796l-32 -62l-123 59l-123 -59l-32 62l155 101z" />
    <glyph glyph-name="Idieresis" unicode="&#xcf;" horiz-adv-x="259" 
d="M70 682h118v-682h-118v682zM-10 875h105v-102h-105v102zM170 875h105v-102h-105v102z" />
    <glyph glyph-name="Eth" unicode="&#xd0;" horiz-adv-x="732" 
d="M15 399h80v283h228q92 0 162 -27t117 -73.5t71 -108.5t24 -132q0 -69 -25 -131t-73 -108.5t-118 -74t-160 -27.5h-226v305h-80v94zM321 103q65 0 113 19t79.5 51.5t47 76t15.5 91.5q0 52 -16.5 96t-49 75.5t-80 49t-109.5 17.5h-108v-180h169v-94h-169v-202h108z" />
    <glyph glyph-name="Ntilde" unicode="&#xd1;" horiz-adv-x="675" 
d="M172 503q0 -13 0.5 -31t1 -37t1 -37t0.5 -31v-367h-105v682h105l203 -308q52 -79 79.5 -124.5t42.5 -73.5h2q0 13 -0.5 31t-1 36.5t-0.5 36v29.5v373h104v-682h-104l-194 293q-32 48 -53 81t-36 57t-24.5 41t-17.5 31h-3zM169 770q3 55 27 91.5t75 36.5q22 0 38.5 -7.5
t36.5 -22.5q37 -28 60 -28q12 0 20.5 10t9.5 39h71q-2 -63 -27.5 -95.5t-75.5 -32.5q-23 0 -42.5 7.5t-38.5 21.5q-20 16 -31 22.5t-22 6.5q-27 0 -30 -49h-71z" />
    <glyph glyph-name="Ograve" unicode="&#xd2;" horiz-adv-x="793" 
d="M156 341q0 -55 18.5 -102t50.5 -81.5t76 -54t95 -19.5t95.5 19.5t76.5 54t50.5 81.5t18.5 102q0 54 -17.5 101t-49 81.5t-75.5 54.5t-98 20q-51 0 -95 -19.5t-76.5 -53.5t-51 -81.5t-18.5 -102.5zM35 341q0 73 27 139t75.5 115.5t115 79t145.5 29.5q84 0 150.5 -30
t113 -80.5t71.5 -116t25 -136.5q0 -75 -27.5 -141t-76 -115.5t-114.5 -78t-143 -28.5q-94 0 -162 33t-112.5 85t-66 117t-21.5 128zM317 902l182 -97l-34 -71l-190 80z" />
    <glyph glyph-name="Oacute" unicode="&#xd3;" horiz-adv-x="793" 
d="M156 341q0 -55 18.5 -102t50.5 -81.5t76 -54t95 -19.5t95.5 19.5t76.5 54t50.5 81.5t18.5 102q0 54 -17.5 101t-49 81.5t-75.5 54.5t-98 20q-51 0 -95 -19.5t-76.5 -53.5t-51 -81.5t-18.5 -102.5zM35 341q0 73 27 139t75.5 115.5t115 79t145.5 29.5q84 0 150.5 -30
t113 -80.5t71.5 -116t25 -136.5q0 -75 -27.5 -141t-76 -115.5t-114.5 -78t-143 -28.5q-94 0 -162 33t-112.5 85t-66 117t-21.5 128zM529 814l-190 -80l-33 71l182 97z" />
    <glyph glyph-name="Ocircumflex" unicode="&#xd4;" horiz-adv-x="793" 
d="M156 341q0 -55 18.5 -102t50.5 -81.5t76 -54t95 -19.5t95.5 19.5t76.5 54t50.5 81.5t18.5 102q0 54 -17.5 101t-49 81.5t-75.5 54.5t-98 20q-51 0 -95 -19.5t-76.5 -53.5t-51 -81.5t-18.5 -102.5zM35 341q0 73 27 139t75.5 115.5t115 79t145.5 29.5q84 0 150.5 -30
t113 -80.5t71.5 -116t25 -136.5q0 -75 -27.5 -141t-76 -115.5t-114.5 -78t-143 -28.5q-94 0 -162 33t-112.5 85t-66 117t-21.5 128zM557 796l-32 -62l-123 59l-123 -59l-32 62l155 101z" />
    <glyph glyph-name="Otilde" unicode="&#xd5;" horiz-adv-x="793" 
d="M156 341q0 -55 18.5 -102t50.5 -81.5t76 -54t95 -19.5t95.5 19.5t76.5 54t50.5 81.5t18.5 102q0 54 -17.5 101t-49 81.5t-75.5 54.5t-98 20q-51 0 -95 -19.5t-76.5 -53.5t-51 -81.5t-18.5 -102.5zM35 341q0 73 27 139t75.5 115.5t115 79t145.5 29.5q84 0 150.5 -30
t113 -80.5t71.5 -116t25 -136.5q0 -75 -27.5 -141t-76 -115.5t-114.5 -78t-143 -28.5q-94 0 -162 33t-112.5 85t-66 117t-21.5 128zM233 770q3 55 27 91.5t75 36.5q22 0 38.5 -7.5t36.5 -22.5q37 -28 60 -28q12 0 20.5 10t9.5 39h71q-2 -63 -27.5 -95.5t-75.5 -32.5
q-23 0 -42.5 7.5t-38.5 21.5q-20 16 -31 22.5t-22 6.5q-27 0 -30 -49h-71z" />
    <glyph glyph-name="Odieresis" unicode="&#xd6;" horiz-adv-x="793" 
d="M156 341q0 -55 18.5 -102t50.5 -81.5t76 -54t95 -19.5t95.5 19.5t76.5 54t50.5 81.5t18.5 102q0 54 -17.5 101t-49 81.5t-75.5 54.5t-98 20q-51 0 -95 -19.5t-76.5 -53.5t-51 -81.5t-18.5 -102.5zM35 341q0 73 27 139t75.5 115.5t115 79t145.5 29.5q84 0 150.5 -30
t113 -80.5t71.5 -116t25 -136.5q0 -75 -27.5 -141t-76 -115.5t-114.5 -78t-143 -28.5q-94 0 -162 33t-112.5 85t-66 117t-21.5 128zM260 875h105v-102h-105v102zM440 875h105v-102h-105v102z" />
    <glyph glyph-name="multiply" unicode="&#xd7;" horiz-adv-x="672" 
d="M521 8l-186 188l-187 -190l-64 64l187 189l-187 187l64 64l186 -187l188 187l64 -64l-187 -187l186 -187z" />
    <glyph glyph-name="Oslash" unicode="&#xd8;" horiz-adv-x="793" 
d="M35 341q0 73 27 139t75.5 115.5t115 79t145.5 29.5q64 0 117.5 -17.5t95.5 -48.5l90 96l63 -58l-90 -97q42 -49 63 -110.5t21 -127.5q0 -75 -27.5 -141t-76 -115.5t-114.5 -78t-143 -28.5q-68 0 -121 17t-95 47l-90 -97l-64 57l91 99q-42 52 -62.5 114.5t-20.5 125.5z
M152 341q0 -45 12 -83t34 -70l340 369q-29 21 -64.5 33t-76.5 12q-52 0 -96.5 -19.5t-77.5 -54.5t-52 -83t-19 -104zM641 341q0 43 -12 82t-33 71l-339 -369q29 -22 64 -33.5t75 -11.5q52 0 97 20t78 55t51.5 82.5t18.5 103.5z" />
    <glyph glyph-name="Ugrave" unicode="&#xd9;" horiz-adv-x="631" 
d="M316 -22q-51 0 -97 15.5t-81.5 50t-56.5 90.5t-21 137v411h118v-422q0 -82 36 -131t102 -49q38 0 64 13.5t42.5 37.5t23.5 57t7 72v422h117v-409q0 -80 -19.5 -136.5t-53.5 -91.5t-80.5 -51t-100.5 -16zM225 902l182 -97l-34 -71l-190 80z" />
    <glyph glyph-name="Uacute" unicode="&#xda;" horiz-adv-x="631" 
d="M316 -22q-51 0 -97 15.5t-81.5 50t-56.5 90.5t-21 137v411h118v-422q0 -82 36 -131t102 -49q38 0 64 13.5t42.5 37.5t23.5 57t7 72v422h117v-409q0 -80 -19.5 -136.5t-53.5 -91.5t-80.5 -51t-100.5 -16zM447 814l-190 -80l-33 71l182 97z" />
    <glyph glyph-name="Ucircumflex" unicode="&#xdb;" horiz-adv-x="631" 
d="M316 -22q-51 0 -97 15.5t-81.5 50t-56.5 90.5t-21 137v411h118v-422q0 -82 36 -131t102 -49q38 0 64 13.5t42.5 37.5t23.5 57t7 72v422h117v-409q0 -80 -19.5 -136.5t-53.5 -91.5t-80.5 -51t-100.5 -16zM470 796l-32 -62l-123 59l-123 -59l-32 62l155 101z" />
    <glyph glyph-name="Udieresis" unicode="&#xdc;" horiz-adv-x="631" 
d="M316 -22q-51 0 -97 15.5t-81.5 50t-56.5 90.5t-21 137v411h118v-422q0 -82 36 -131t102 -49q38 0 64 13.5t42.5 37.5t23.5 57t7 72v422h117v-409q0 -80 -19.5 -136.5t-53.5 -91.5t-80.5 -51t-100.5 -16zM173 875h105v-102h-105v102zM353 875h105v-102h-105v102z" />
    <glyph glyph-name="Yacute" unicode="&#xdd;" horiz-adv-x="570" 
d="M227 274l-218 408h130l115 -223q11 -22 20 -42t16 -40h2q8 21 17 39.5t20 41.5l110 224h123l-217 -407v-275h-118v274zM425 814l-190 -80l-33 71l182 97z" />
    <glyph glyph-name="Thorn" unicode="&#xde;" horiz-adv-x="549" 
d="M70 682h118v-124h86q53 0 97.5 -12.5t76.5 -37.5t50 -63t18 -88q0 -100 -61.5 -155t-186.5 -55h-80v-147h-118v682zM396 355q0 48 -30.5 76t-90.5 28h-87v-213h84q68 0 96 30.5t28 78.5z" />
    <glyph glyph-name="germandbls" unicode="&#xdf;" horiz-adv-x="620" 
d="M497 560q0 -43 -19 -74t-63 -54q-36 -19 -49 -33t-13 -29q0 -10 3.5 -18.5t13 -17t27.5 -17.5t47 -21q41 -17 68 -34.5t43 -37.5t22.5 -42.5t6.5 -47.5q0 -31 -11 -58.5t-33 -48t-55.5 -32.5t-78.5 -12q-44 0 -76 11.5t-54 32t-33.5 48.5t-14.5 60h104q5 -33 23 -51.5
t55 -18.5q33 0 50 17t17 43q0 29 -21 48.5t-76 42.5q-38 15 -63.5 31.5t-41 34.5t-22 38t-6.5 43q0 36 18 65.5t58 50.5q38 20 51 36.5t13 41.5q0 11 -4 24.5t-15 25.5t-30 20t-49 8q-58 0 -85 -33.5t-27 -100.5v-501h-112v504q0 57 16 98.5t46 68.5t71.5 40.5t92.5 13.5
q47 0 85 -12.5t65 -35t41.5 -52.5t14.5 -65z" />
    <glyph glyph-name="agrave" unicode="&#xe0;" horiz-adv-x="604" 
d="M538 0h-109v61h-3q-25 -31 -64.5 -54.5t-99.5 -23.5q-41 0 -82 16t-74 48.5t-53.5 80.5t-20.5 112q0 57 19 104t51.5 80t75.5 51.5t92 18.5q30 0 54 -7t43.5 -18.5t34 -26t25.5 -28.5h2v65h109v-479zM147 240q0 -30 8.5 -58.5t26.5 -51t45.5 -36t64.5 -13.5
q28 0 53.5 11.5t45 32t31.5 49t12 63.5q0 36 -11 66t-30 51t-45 32.5t-55 11.5q-37 0 -64.5 -13.5t-45.5 -36t-27 -51t-9 -57.5zM226 758l147 -142l-50 -60l-160 129z" />
    <glyph glyph-name="aacute" unicode="&#xe1;" horiz-adv-x="604" 
d="M538 0h-109v61h-3q-25 -31 -64.5 -54.5t-99.5 -23.5q-41 0 -82 16t-74 48.5t-53.5 80.5t-20.5 112q0 57 19 104t51.5 80t75.5 51.5t92 18.5q30 0 54 -7t43.5 -18.5t34 -26t25.5 -28.5h2v65h109v-479zM147 240q0 -30 8.5 -58.5t26.5 -51t45.5 -36t64.5 -13.5
q28 0 53.5 11.5t45 32t31.5 49t12 63.5q0 36 -11 66t-30 51t-45 32.5t-55 11.5q-37 0 -64.5 -13.5t-45.5 -36t-27 -51t-9 -57.5zM357 758l62 -73l-160 -129l-50 60z" />
    <glyph glyph-name="acircumflex" unicode="&#xe2;" horiz-adv-x="604" 
d="M538 0h-109v61h-3q-25 -31 -64.5 -54.5t-99.5 -23.5q-41 0 -82 16t-74 48.5t-53.5 80.5t-20.5 112q0 57 19 104t51.5 80t75.5 51.5t92 18.5q30 0 54 -7t43.5 -18.5t34 -26t25.5 -28.5h2v65h109v-479zM147 240q0 -30 8.5 -58.5t26.5 -51t45.5 -36t64.5 -13.5
q28 0 53.5 11.5t45 32t31.5 49t12 63.5q0 36 -11 66t-30 51t-45 32.5t-55 11.5q-37 0 -64.5 -13.5t-45.5 -36t-27 -51t-9 -57.5zM445 613l-45 -59l-109 79l-109 -79l-45 59l154 127z" />
    <glyph glyph-name="atilde" unicode="&#xe3;" horiz-adv-x="604" 
d="M538 0h-109v61h-3q-25 -31 -64.5 -54.5t-99.5 -23.5q-41 0 -82 16t-74 48.5t-53.5 80.5t-20.5 112q0 57 19 104t51.5 80t75.5 51.5t92 18.5q30 0 54 -7t43.5 -18.5t34 -26t25.5 -28.5h2v65h109v-479zM147 240q0 -30 8.5 -58.5t26.5 -51t45.5 -36t64.5 -13.5
q28 0 53.5 11.5t45 32t31.5 49t12 63.5q0 36 -11 66t-30 51t-45 32.5t-55 11.5q-37 0 -64.5 -13.5t-45.5 -36t-27 -51t-9 -57.5zM128 590q3 55 27 91.5t75 36.5q22 0 38.5 -7.5t36.5 -22.5q37 -28 60 -28q12 0 20.5 10t9.5 39h71q-2 -63 -27.5 -95.5t-75.5 -32.5
q-23 0 -42.5 7.5t-38.5 21.5q-20 16 -31 22.5t-22 6.5q-27 0 -30 -49h-71z" />
    <glyph glyph-name="adieresis" unicode="&#xe4;" horiz-adv-x="604" 
d="M538 0h-109v61h-3q-25 -31 -64.5 -54.5t-99.5 -23.5q-41 0 -82 16t-74 48.5t-53.5 80.5t-20.5 112q0 57 19 104t51.5 80t75.5 51.5t92 18.5q30 0 54 -7t43.5 -18.5t34 -26t25.5 -28.5h2v65h109v-479zM147 240q0 -30 8.5 -58.5t26.5 -51t45.5 -36t64.5 -13.5
q28 0 53.5 11.5t45 32t31.5 49t12 63.5q0 36 -11 66t-30 51t-45 32.5t-55 11.5q-37 0 -64.5 -13.5t-45.5 -36t-27 -51t-9 -57.5zM149 695h105v-102h-105v102zM329 695h105v-102h-105v102z" />
    <glyph glyph-name="aring" unicode="&#xe5;" horiz-adv-x="604" 
d="M538 0h-109v61h-3q-25 -31 -64.5 -54.5t-99.5 -23.5q-41 0 -82 16t-74 48.5t-53.5 80.5t-20.5 112q0 57 19 104t51.5 80t75.5 51.5t92 18.5q30 0 54 -7t43.5 -18.5t34 -26t25.5 -28.5h2v65h109v-479zM147 240q0 -30 8.5 -58.5t26.5 -51t45.5 -36t64.5 -13.5
q28 0 53.5 11.5t45 32t31.5 49t12 63.5q0 36 -11 66t-30 51t-45 32.5t-55 11.5q-37 0 -64.5 -13.5t-45.5 -36t-27 -51t-9 -57.5zM231 657q0 -26 18 -43.5t44 -17.5q25 0 42 17.5t17 43.5q0 25 -17 42t-42 17q-26 0 -44 -17t-18 -42zM166 657q0 26 9.5 48.5t27 39.5t40.5 27
t50 10q26 0 48.5 -10t39.5 -27t27 -39.5t10 -48.5q0 -27 -10 -50t-27 -40t-39.5 -27t-48.5 -10q-27 0 -50 10t-40.5 27t-27 40t-9.5 50z" />
    <glyph glyph-name="ae" unicode="&#xe6;" horiz-adv-x="852" 
d="M586 495q62 0 106 -22.5t71.5 -58.5t40.5 -81t13 -89q0 -18 -2 -28h-353q0 -30 9.5 -56.5t26.5 -46t41 -31t55 -11.5q37 0 60 14t37 40h115q-26 -63 -78 -102.5t-133 -39.5q-72 0 -120 27t-76 78q-15 -21 -33.5 -40t-42 -33.5t-52.5 -23t-65 -8.5q-47 0 -79.5 12.5
t-53 33.5t-30 48t-9.5 57q0 81 65.5 120t183.5 39h75v25q0 43 -26.5 68.5t-73.5 25.5q-49 0 -73 -18t-28 -45h-104q2 27 15 53t38 47t61.5 33.5t86.5 12.5q67 0 107 -21.5t58 -56.5q28 35 70 56.5t97 21.5zM585 411q-28 0 -50 -9.5t-37 -26t-24 -38t-11 -44.5h242
q-5 49 -35 83.5t-85 34.5zM283 216q-39 0 -66 -6t-43 -16.5t-23 -25t-7 -32.5q0 -37 22 -53t52 -16q32 0 57.5 12.5t43 33.5t27.5 47.5t12 55.5h-75z" />
    <glyph glyph-name="ccedilla" unicode="&#xe7;" horiz-adv-x="547" 
d="M287 495q51 0 90 -15t66 -38.5t43 -52t22 -54.5h-115q-11 29 -38 47t-69 18q-61 0 -100 -42t-39 -118q0 -34 10 -63.5t29 -51t45 -34t59 -12.5q47 0 72.5 22t37.5 50h116q-9 -31 -26 -59.5t-41.5 -51t-58.5 -37.5t-77 -19l-9 -23q41 -7 63.5 -34.5t22.5 -62.5
q0 -47 -30.5 -77t-93.5 -30q-28 0 -57 5t-49 12l24 67q11 -5 32.5 -8.5t38.5 -3.5q24 0 38 8t14 26q0 43 -94 43l32 81q-44 6 -83 26.5t-68 53t-45.5 76.5t-16.5 98q0 52 18 98.5t51 81t80 54.5t106 20z" />
    <glyph glyph-name="egrave" unicode="&#xe8;" horiz-adv-x="551" 
d="M275 495q62 0 107.5 -22.5t75 -58t44 -80t14.5 -90.5v-16.5t-2 -16.5h-370q0 -28 11.5 -53.5t31 -44.5t45.5 -30.5t55 -11.5q37 0 62.5 14t44.5 40h115q-12 -27 -31 -53t-46.5 -45.5t-63.5 -31.5t-81 -12q-55 0 -102 19.5t-81 54t-53 82.5t-19 105q0 51 16.5 96.5t48 80
t76.5 54.5t102 20zM275 411q-29 0 -52 -10t-39.5 -26.5t-26.5 -38t-12 -44.5h259q-3 24 -13 45.5t-26.5 38t-39.5 26t-50 9.5zM211 758l147 -142l-50 -60l-160 129z" />
    <glyph glyph-name="eacute" unicode="&#xe9;" horiz-adv-x="551" 
d="M275 495q62 0 107.5 -22.5t75 -58t44 -80t14.5 -90.5v-16.5t-2 -16.5h-370q0 -28 11.5 -53.5t31 -44.5t45.5 -30.5t55 -11.5q37 0 62.5 14t44.5 40h115q-12 -27 -31 -53t-46.5 -45.5t-63.5 -31.5t-81 -12q-55 0 -102 19.5t-81 54t-53 82.5t-19 105q0 51 16.5 96.5t48 80
t76.5 54.5t102 20zM275 411q-29 0 -52 -10t-39.5 -26.5t-26.5 -38t-12 -44.5h259q-3 24 -13 45.5t-26.5 38t-39.5 26t-50 9.5zM342 758l62 -73l-160 -129l-50 60z" />
    <glyph glyph-name="ecircumflex" unicode="&#xea;" horiz-adv-x="551" 
d="M275 495q62 0 107.5 -22.5t75 -58t44 -80t14.5 -90.5v-16.5t-2 -16.5h-370q0 -28 11.5 -53.5t31 -44.5t45.5 -30.5t55 -11.5q37 0 62.5 14t44.5 40h115q-12 -27 -31 -53t-46.5 -45.5t-63.5 -31.5t-81 -12q-55 0 -102 19.5t-81 54t-53 82.5t-19 105q0 51 16.5 96.5t48 80
t76.5 54.5t102 20zM275 411q-29 0 -52 -10t-39.5 -26.5t-26.5 -38t-12 -44.5h259q-3 24 -13 45.5t-26.5 38t-39.5 26t-50 9.5zM430 613l-45 -59l-109 79l-109 -79l-45 59l154 127z" />
    <glyph glyph-name="edieresis" unicode="&#xeb;" horiz-adv-x="551" 
d="M275 495q62 0 107.5 -22.5t75 -58t44 -80t14.5 -90.5v-16.5t-2 -16.5h-370q0 -28 11.5 -53.5t31 -44.5t45.5 -30.5t55 -11.5q37 0 62.5 14t44.5 40h115q-12 -27 -31 -53t-46.5 -45.5t-63.5 -31.5t-81 -12q-55 0 -102 19.5t-81 54t-53 82.5t-19 105q0 51 16.5 96.5t48 80
t76.5 54.5t102 20zM275 411q-29 0 -52 -10t-39.5 -26.5t-26.5 -38t-12 -44.5h259q-3 24 -13 45.5t-26.5 38t-39.5 26t-50 9.5zM134 695h105v-102h-105v102zM314 695h105v-102h-105v102z" />
    <glyph glyph-name="igrave" unicode="&#xec;" horiz-adv-x="242" 
d="M65 479h112v-479h-112v479zM59 758l147 -142l-50 -60l-160 129z" />
    <glyph glyph-name="iacute" unicode="&#xed;" horiz-adv-x="242" 
d="M65 479h112v-479h-112v479zM190 758l62 -73l-160 -129l-50 60z" />
    <glyph glyph-name="icircumflex" unicode="&#xee;" horiz-adv-x="242" 
d="M65 479h112v-479h-112v479zM278 613l-45 -59l-109 79l-109 -79l-45 59l154 127z" />
    <glyph glyph-name="idieresis" unicode="&#xef;" horiz-adv-x="242" 
d="M65 479h112v-479h-112v479zM-18 695h105v-102h-105v102zM162 695h105v-102h-105v102z" />
    <glyph glyph-name="eth" unicode="&#xf0;" horiz-adv-x="577" 
d="M143 581l86 54q-51 48 -102 85h131q23 -15 56 -41l84 51l41 -68l-63 -39q75 -74 121.5 -166.5t46.5 -208.5q0 -55 -19 -103t-53 -84t-81 -57t-103 -21q-55 0 -101.5 20t-81 54.5t-54 81.5t-19.5 101q0 55 20 101.5t54.5 80.5t82 52.5t101.5 18.5q23 0 45.5 -6t39.5 -17
l2 3q-17 24 -42.5 52.5t-48.5 50.5l-101 -63zM146 240q0 -35 11.5 -63.5t31 -49.5t45 -32.5t54.5 -11.5q32 0 58.5 12t45 33t29 50t10.5 62q0 32 -10 60.5t-28.5 49.5t-45 33.5t-59.5 12.5q-32 0 -58.5 -12t-45 -33t-28.5 -49.5t-10 -61.5z" />
    <glyph glyph-name="ntilde" unicode="&#xf1;" 
d="M65 479h111v-60h2q29 41 67.5 58.5t78.5 17.5q37 0 71 -12.5t59.5 -39t40.5 -68t15 -99.5v-276h-112v270q0 62 -27.5 94t-75.5 32q-53 0 -85.5 -36t-32.5 -106v-254h-112v479zM127 590q3 55 27 91.5t75 36.5q22 0 38.5 -7.5t36.5 -22.5q37 -28 60 -28q12 0 20.5 10
t9.5 39h71q-2 -63 -27.5 -95.5t-75.5 -32.5q-23 0 -42.5 7.5t-38.5 21.5q-20 16 -31 22.5t-22 6.5q-27 0 -30 -49h-71z" />
    <glyph glyph-name="ograve" unicode="&#xf2;" horiz-adv-x="577" 
d="M32 240q0 55 19.5 102t54 81t81.5 53t101 19q56 0 103 -19.5t81 -53.5t53 -81t19 -101q0 -53 -19 -99.5t-53 -81.5t-81 -55.5t-103 -20.5q-55 0 -101.5 20t-81 54.5t-54 81.5t-19.5 101zM146 240q0 -35 11.5 -63.5t31 -49.5t45 -32.5t54.5 -11.5q32 0 58.5 12t45 33
t29 50t10.5 62q0 32 -10 60.5t-28.5 49.5t-45 33.5t-59.5 12.5q-32 0 -58.5 -12t-45 -33t-28.5 -49.5t-10 -61.5zM235 758l147 -142l-50 -60l-160 129z" />
    <glyph glyph-name="oacute" unicode="&#xf3;" horiz-adv-x="577" 
d="M32 240q0 55 19.5 102t54 81t81.5 53t101 19q56 0 103 -19.5t81 -53.5t53 -81t19 -101q0 -53 -19 -99.5t-53 -81.5t-81 -55.5t-103 -20.5q-55 0 -101.5 20t-81 54.5t-54 81.5t-19.5 101zM146 240q0 -35 11.5 -63.5t31 -49.5t45 -32.5t54.5 -11.5q32 0 58.5 12t45 33
t29 50t10.5 62q0 32 -10 60.5t-28.5 49.5t-45 33.5t-59.5 12.5q-32 0 -58.5 -12t-45 -33t-28.5 -49.5t-10 -61.5zM349 758l62 -73l-160 -129l-50 60z" />
    <glyph glyph-name="ocircumflex" unicode="&#xf4;" horiz-adv-x="577" 
d="M32 240q0 55 19.5 102t54 81t81.5 53t101 19q56 0 103 -19.5t81 -53.5t53 -81t19 -101q0 -53 -19 -99.5t-53 -81.5t-81 -55.5t-103 -20.5q-55 0 -101.5 20t-81 54.5t-54 81.5t-19.5 101zM146 240q0 -35 11.5 -63.5t31 -49.5t45 -32.5t54.5 -11.5q32 0 58.5 12t45 33
t29 50t10.5 62q0 32 -10 60.5t-28.5 49.5t-45 33.5t-59.5 12.5q-32 0 -58.5 -12t-45 -33t-28.5 -49.5t-10 -61.5zM445 613l-45 -59l-109 79l-109 -79l-45 59l154 127z" />
    <glyph glyph-name="otilde" unicode="&#xf5;" horiz-adv-x="577" 
d="M32 240q0 55 19.5 102t54 81t81.5 53t101 19q56 0 103 -19.5t81 -53.5t53 -81t19 -101q0 -53 -19 -99.5t-53 -81.5t-81 -55.5t-103 -20.5q-55 0 -101.5 20t-81 54.5t-54 81.5t-19.5 101zM146 240q0 -35 11.5 -63.5t31 -49.5t45 -32.5t54.5 -11.5q32 0 58.5 12t45 33
t29 50t10.5 62q0 32 -10 60.5t-28.5 49.5t-45 33.5t-59.5 12.5q-32 0 -58.5 -12t-45 -33t-28.5 -49.5t-10 -61.5zM122 590q3 55 27 91.5t75 36.5q22 0 38.5 -7.5t36.5 -22.5q37 -28 60 -28q12 0 20.5 10t9.5 39h71q-2 -63 -27.5 -95.5t-75.5 -32.5q-23 0 -42.5 7.5
t-38.5 21.5q-20 16 -31 22.5t-22 6.5q-27 0 -30 -49h-71z" />
    <glyph glyph-name="odieresis" unicode="&#xf6;" horiz-adv-x="577" 
d="M32 240q0 55 19.5 102t54 81t81.5 53t101 19q56 0 103 -19.5t81 -53.5t53 -81t19 -101q0 -53 -19 -99.5t-53 -81.5t-81 -55.5t-103 -20.5q-55 0 -101.5 20t-81 54.5t-54 81.5t-19.5 101zM146 240q0 -35 11.5 -63.5t31 -49.5t45 -32.5t54.5 -11.5q32 0 58.5 12t45 33
t29 50t10.5 62q0 32 -10 60.5t-28.5 49.5t-45 33.5t-59.5 12.5q-32 0 -58.5 -12t-45 -33t-28.5 -49.5t-10 -61.5zM149 695h105v-102h-105v102zM329 695h105v-102h-105v102z" />
    <glyph glyph-name="divide" unicode="&#xf7;" horiz-adv-x="672" 
d="M78 219v90h516v-90h-516zM401 455q0 -29 -19.5 -46.5t-45.5 -17.5t-45.5 19t-19.5 44q0 27 18.5 46.5t46.5 19.5q29 0 47 -18.5t18 -46.5zM401 74q0 -30 -19.5 -48.5t-44.5 -18.5q-27 0 -46.5 20t-19.5 46t18.5 45t46.5 19q29 0 47 -18.5t18 -44.5z" />
    <glyph glyph-name="oslash" unicode="&#xf8;" horiz-adv-x="577" 
d="M32 240q0 55 19.5 102t54 81t81.5 53t101 19q40 0 75 -10t64 -28l63 71l58 -52l-62 -70q28 -33 43 -75.5t15 -90.5q0 -53 -19 -99.5t-53 -81.5t-81 -55.5t-103 -20.5q-39 0 -74 10.5t-64 28.5l-61 -70l-60 51l62 70q-28 34 -43.5 76.5t-15.5 90.5zM142 240q0 -50 25 -89
l199 226q-35 22 -78 22q-33 0 -60 -12t-46 -33.5t-29.5 -50.5t-10.5 -63zM435 240q0 24 -6.5 46t-17.5 42l-199 -226q34 -23 76 -23q33 0 60 12.5t46.5 34t30 51t10.5 63.5z" />
    <glyph glyph-name="ugrave" unicode="&#xf9;" horiz-adv-x="557" 
d="M493 0h-111v59h-3q-30 -42 -67 -58.5t-75 -16.5q-30 0 -62 10.5t-57.5 35t-42 65t-16.5 101.5v283h112v-270q0 -61 26.5 -93.5t71.5 -32.5q51 0 81.5 35.5t30.5 105.5v255h112v-479zM215 758l147 -142l-50 -60l-160 129z" />
    <glyph glyph-name="uacute" unicode="&#xfa;" horiz-adv-x="557" 
d="M493 0h-111v59h-3q-30 -42 -67 -58.5t-75 -16.5q-30 0 -62 10.5t-57.5 35t-42 65t-16.5 101.5v283h112v-270q0 -61 26.5 -93.5t71.5 -32.5q51 0 81.5 35.5t30.5 105.5v255h112v-479zM346 758l62 -73l-160 -129l-50 60z" />
    <glyph glyph-name="ucircumflex" unicode="&#xfb;" horiz-adv-x="557" 
d="M493 0h-111v59h-3q-30 -42 -67 -58.5t-75 -16.5q-30 0 -62 10.5t-57.5 35t-42 65t-16.5 101.5v283h112v-270q0 -61 26.5 -93.5t71.5 -32.5q51 0 81.5 35.5t30.5 105.5v255h112v-479zM434 613l-45 -59l-109 79l-109 -79l-45 59l154 127z" />
    <glyph glyph-name="udieresis" unicode="&#xfc;" horiz-adv-x="557" 
d="M493 0h-111v59h-3q-30 -42 -67 -58.5t-75 -16.5q-30 0 -62 10.5t-57.5 35t-42 65t-16.5 101.5v283h112v-270q0 -61 26.5 -93.5t71.5 -32.5q51 0 81.5 35.5t30.5 105.5v255h112v-479zM138 695h105v-102h-105v102zM318 695h105v-102h-105v102z" />
    <glyph glyph-name="yacute" unicode="&#xfd;" horiz-adv-x="452" 
d="M193 -235h-107l88 237l-175 477h115l83 -238q8 -23 17.5 -54t14.5 -56h3q8 30 15 55.5t17 54.5l81 238h111zM300 758l62 -73l-160 -129l-50 60z" />
    <glyph glyph-name="thorn" unicode="&#xfe;" horiz-adv-x="604" 
d="M65 720h110v-302h3q12 13 27 27t34.5 24.5t45 17.5t58.5 7q46 0 87 -18.5t72.5 -52t50 -80.5t18.5 -105q0 -56 -18.5 -103t-50.5 -81t-74.5 -52.5t-91.5 -18.5q-56 0 -95 22.5t-63 52.5h-3v-293h-110v955zM457 239q0 30 -9 58.5t-27 50t-45.5 35t-64.5 13.5
q-29 0 -55 -11.5t-45 -32t-30 -50t-11 -65.5q0 -35 11.5 -64t31 -49.5t45 -32t54.5 -11.5q36 0 63.5 13.5t45.5 36t27 51t9 58.5z" />
    <glyph glyph-name="ydieresis" unicode="&#xff;" horiz-adv-x="452" 
d="M193 -235h-107l88 237l-175 477h115l83 -238q8 -23 17.5 -54t14.5 -56h3q8 30 15 55.5t17 54.5l81 238h111zM92 695h105v-102h-105v102zM272 695h105v-102h-105v102z" />
    <glyph glyph-name="dotlessi" unicode="&#x131;" horiz-adv-x="242" 
d="M65 479h112v-479h-112v479z" />
    <glyph glyph-name="OE" unicode="&#x152;" horiz-adv-x="1082" 
d="M1011 578h-275v-175h265v-101h-265v-198h286v-104h-396v96q-45 -55 -105 -86.5t-133 -31.5q-92 0 -158.5 33t-109.5 85t-64 117t-21 128q0 73 26.5 139t73.5 115.5t112 79t142 29.5t136 -30.5t101 -83.5v92h385v-104zM156 341q0 -55 18 -102t50.5 -81.5t76.5 -54
t95 -19.5q50 0 93.5 19.5t75.5 54t50 81.5t18 102q0 54 -17 101t-48 81.5t-74.5 54.5t-96.5 20q-51 0 -95.5 -19.5t-76.5 -53.5t-50.5 -81.5t-18.5 -102.5z" />
    <glyph glyph-name="oe" unicode="&#x153;" horiz-adv-x="920" 
d="M32 240q0 55 19 102t52 81t78 53t97 19q64 0 113 -27t80 -73q28 45 74 72.5t110 27.5q57 0 100 -21.5t72.5 -57t44 -80.5t14.5 -92q0 -8 -0.5 -16t-1.5 -16h-357q0 -28 10 -53.5t28 -45t42 -31t53 -11.5q35 0 58.5 14t41.5 40h115q-12 -27 -30.5 -53t-45 -45.5
t-61.5 -31.5t-79 -12q-65 0 -112 27t-76 75q-31 -47 -80.5 -74.5t-112.5 -27.5q-53 0 -98 20t-78 54.5t-51.5 81.5t-18.5 101zM146 240q0 -35 10.5 -63.5t29 -49.5t43.5 -32.5t53 -11.5q30 0 55 12t43 33t28 50t10 62q0 32 -9.5 60.5t-27 49.5t-43 33.5t-56.5 12.5t-56 -12
t-43 -33t-27.5 -49.5t-9.5 -61.5zM652 411q-27 0 -49 -10t-37.5 -26.5t-25 -38.5t-12.5 -45h246q-2 24 -12 45.5t-25.5 38t-37 26.5t-47.5 10z" />
    <glyph glyph-name="Scaron" unicode="&#x160;" horiz-adv-x="555" 
d="M373 520q-5 38 -30 62t-67 24t-67 -23.5t-25 -61.5q0 -42 32.5 -66t89.5 -42q55 -17 92.5 -40t60.5 -51t33.5 -61.5t10.5 -72.5q0 -38 -13.5 -75.5t-41.5 -67.5t-70 -48.5t-99 -18.5q-96 0 -159 52t-77 154h120q8 -49 37 -78.5t80 -29.5q26 0 45.5 9t33 23.5t20.5 33.5
t7 39q0 49 -31.5 78.5t-100.5 51.5q-99 32 -142.5 84t-43.5 125q0 40 16 74t44 58.5t66 38t83 13.5q46 0 83.5 -13.5t65 -38t44 -58.5t19.5 -74h-116zM120 835l32 62l123 -59l124 59l31 -62l-155 -101z" />
    <glyph glyph-name="scaron" unicode="&#x161;" horiz-adv-x="434" 
d="M283 356q-4 26 -21.5 42t-42.5 16q-29 0 -44.5 -15.5t-15.5 -35.5q0 -11 3.5 -20.5t14 -18.5t30 -18.5t50.5 -19.5q77 -25 108 -64t31 -89q0 -66 -46.5 -108t-129.5 -42q-86 0 -129.5 42.5t-50.5 109.5h104q4 -30 22.5 -50t56.5 -20q32 0 49 17t17 42q0 27 -20.5 46.5
t-79.5 39.5q-68 22 -101.5 57t-33.5 91q0 30 11.5 55t32.5 43t51 28.5t68 10.5q39 0 68.5 -11t50.5 -29.5t33 -44t17 -54.5h-103zM66 681l45 59l109 -79l109 79l45 -59l-154 -127z" />
    <glyph glyph-name="Ydieresis" unicode="&#x178;" horiz-adv-x="570" 
d="M227 274l-218 408h130l115 -223q11 -22 20 -42t16 -40h2q8 21 17 39.5t20 41.5l110 224h123l-217 -407v-275h-118v274zM150 875h105v-102h-105v102zM330 875h105v-102h-105v102z" />
    <glyph glyph-name="Zcaron" unicode="&#x17d;" horiz-adv-x="612" 
d="M56 682h500v-98l-371 -480h387v-104h-533v97l371 481h-354v104zM145 835l32 62l123 -59l124 59l31 -62l-155 -101z" />
    <glyph glyph-name="zcaron" unicode="&#x17e;" horiz-adv-x="484" 
d="M48 479h387v-89l-257 -297h269v-93h-411v89l258 297h-246v93zM84 681l45 59l109 -79l109 79l45 -59l-154 -127z" />
    <glyph glyph-name="florin" unicode="&#x192;" 
d="M216 388h-79v94h92l9 56q14 86 53.5 126t111.5 40q20 0 37.5 -2.5t30.5 -4.5v-91q-11 2 -24 3t-24 1q-33 0 -50.5 -19.5t-22.5 -55.5l-9 -53h88v-94h-102l-75 -474q-15 -91 -55.5 -131t-109.5 -40q-45 0 -70 7v92q11 -2 24.5 -4t24.5 -2q33 0 50 20t25 65z" />
    <glyph glyph-name="uni0237" unicode="&#x237;" horiz-adv-x="242" 
d="M177 -45q0 -107 -47 -156.5t-126 -49.5q-30 0 -52 4.5t-39 9.5v94q10 -3 30 -7.5t42 -4.5q38 0 59 24t21 82v528h112v-524z" />
    <glyph glyph-name="circumflex" unicode="&#x2c6;" horiz-adv-x="324" 
d="M316 613l-45 -59l-109 79l-109 -79l-45 59l154 127z" />
    <glyph glyph-name="caron" unicode="&#x2c7;" horiz-adv-x="324" 
d="M8 681l45 59l109 -79l109 79l45 -59l-154 -127z" />
    <glyph glyph-name="ring" unicode="&#x2da;" horiz-adv-x="324" 
d="M102 657q0 -26 18 -43.5t44 -17.5q25 0 42 17.5t17 43.5q0 25 -17 42t-42 17q-26 0 -44 -17t-18 -42zM37 657q0 26 9.5 48.5t27 39.5t40.5 27t50 10q26 0 48.5 -10t39.5 -27t27 -39.5t10 -48.5q0 -27 -10 -50t-27 -40t-39.5 -27t-48.5 -10q-27 0 -50 10t-40.5 27t-27 40
t-9.5 50z" />
    <glyph glyph-name="tilde" unicode="&#x2dc;" horiz-adv-x="324" 
d="M-7 590q3 55 27 91.5t75 36.5q22 0 38.5 -7.5t36.5 -22.5q37 -28 60 -28q12 0 20.5 10t9.5 39h71q-2 -63 -27.5 -95.5t-75.5 -32.5q-23 0 -42.5 7.5t-38.5 21.5q-20 16 -31 22.5t-22 6.5q-27 0 -30 -49h-71z" />
    <glyph glyph-name="endash" unicode="&#x2013;" horiz-adv-x="556" 
d="M76 217v94h404v-94h-404z" />
    <glyph glyph-name="emdash" unicode="&#x2014;" horiz-adv-x="1106" 
d="M76 217v94h954v-94h-954z" />
    <glyph glyph-name="quoteleft" unicode="&#x2018;" horiz-adv-x="256" 
d="M194 473h-131v60q0 58 15 104t38 83h65q-17 -26 -26.5 -58t-11.5 -65h51v-124z" />
    <glyph glyph-name="quoteright" unicode="&#x2019;" horiz-adv-x="256" 
d="M63 720h130v-60q0 -58 -15 -104t-38 -83h-65q17 26 26.5 58t11.5 65h-50v124z" />
    <glyph glyph-name="quotesinglbase" unicode="&#x201a;" horiz-adv-x="256" 
d="M63 124h130v-60q0 -58 -15 -104t-38 -83h-65q17 26 26.5 58t11.5 65h-50v124z" />
    <glyph glyph-name="quotedblleft" unicode="&#x201c;" horiz-adv-x="443" 
d="M194 473h-131v60q0 58 15 104t38 83h65q-17 -26 -26.5 -58t-11.5 -65h51v-124zM380 473h-130v60q0 58 15 104t38 83h64q-17 -26 -26 -58t-12 -65h51v-124z" />
    <glyph glyph-name="quotedblright" unicode="&#x201d;" horiz-adv-x="443" 
d="M249 720h131v-60q0 -58 -15 -104t-38 -83h-65q17 26 26.5 58t11.5 65h-51v124zM63 720h130v-60q0 -58 -15 -104t-38 -83h-65q17 26 26.5 58t11.5 65h-50v124z" />
    <glyph glyph-name="quotedblbase" unicode="&#x201e;" horiz-adv-x="443" 
d="M249 124h131v-60q0 -58 -15 -104t-38 -83h-65q17 26 26.5 58t11.5 65h-51v124zM63 124h130v-60q0 -58 -15 -104t-38 -83h-65q17 26 26.5 58t11.5 65h-50v124z" />
    <glyph glyph-name="dagger" unicode="&#x2020;" horiz-adv-x="451" 
d="M265 443l14 -93l-14 -350h-79l-15 350l15 93l-141 -15v108l141 -14l-15 160h108l-14 -160l142 14v-108z" />
    <glyph glyph-name="daggerdbl" unicode="&#x2021;" horiz-adv-x="451" 
d="M263 0h-76l-12 151l12 76l-142 -13v102l142 -13l-12 76l12 77l-142 -13v101l142 -13l-12 151h101l-13 -151l144 13v-101l-144 13l13 -77l-13 -76l144 13v-102l-144 13l13 -76z" />
    <glyph glyph-name="bullet" unicode="&#x2022;" horiz-adv-x="412" 
d="M66 304q0 29 11 54.5t29.5 44.5t44 30t54.5 11q28 0 54 -11t45 -30t30.5 -44.5t11.5 -54.5t-11.5 -54.5t-30.5 -44.5t-45 -30t-54 -11q-29 0 -54.5 11t-44 30t-29.5 44.5t-11 54.5z" />
    <glyph glyph-name="ellipsis" unicode="&#x2026;" horiz-adv-x="1006" 
d="M100 135h140v-135h-140v135zM433 135h140v-135h-140v135zM766 135h140v-135h-140v135z" />
    <glyph glyph-name="perthousand" unicode="&#x2030;" horiz-adv-x="1144" 
d="M671 682l-458 -682h-92l459 682h91zM41 515q0 50 14.5 86t37.5 58.5t51.5 33t57.5 10.5q26 0 53 -9.5t49 -31.5t36 -57.5t14 -87.5q0 -57 -16 -94.5t-39 -59t-50.5 -30t-49.5 -8.5q-27 0 -55 9.5t-51 31.5t-37.5 58.5t-14.5 90.5zM268 515q0 56 -18.5 84t-51.5 28
q-29 0 -49.5 -25.5t-20.5 -85.5t19.5 -87.5t51.5 -27.5q27 0 48 26.5t21 87.5zM437 169q0 50 14.5 85.5t37 58t51 33t56.5 10.5q26 0 53.5 -9.5t49.5 -31.5t36 -57t14 -87q0 -58 -16 -95.5t-39.5 -59t-50.5 -30t-50 -8.5q-27 0 -54.5 9.5t-50 31.5t-37 59t-14.5 91zM663 169
q0 55 -18.5 83t-51.5 28q-29 0 -49.5 -25.5t-20.5 -84.5q0 -61 19.5 -88t51.5 -27q27 0 48 26t21 88zM790 169q0 50 14.5 85.5t37.5 58t51.5 33t56.5 10.5q26 0 53.5 -9.5t49.5 -31.5t36 -57t14 -87q0 -58 -16 -95.5t-39.5 -59t-50.5 -30t-50 -8.5q-27 0 -54.5 9.5
t-50.5 31.5t-37.5 59t-14.5 91zM1016 169q0 111 -70 111q-28 0 -48.5 -25.5t-20.5 -84.5q0 -61 19 -88t51 -27q28 0 48.5 26t20.5 88z" />
    <glyph glyph-name="guilsinglleft" unicode="&#x2039;" horiz-adv-x="298" 
d="M180 455l70 -38l-88 -169l88 -169l-70 -39l-128 208z" />
    <glyph glyph-name="guilsinglright" unicode="&#x203a;" horiz-adv-x="298" 
d="M118 40l-70 38l87 169l-87 170l70 38l128 -208z" />
    <glyph glyph-name="Euro" unicode="&#x20ac;" 
d="M549 -2q-28 -9 -58.5 -14.5t-68.5 -5.5q-68 0 -120 18t-90.5 50.5t-63.5 77.5t-38 98h-91l24 83h53q-1 8 -1 18.5v18.5q0 11 0.5 24.5t1.5 24.5h-67l24 84h60q15 52 43 94t66.5 72t87.5 46.5t107 16.5q32 0 65.5 -5.5t60.5 -14.5l-26 -95q-20 7 -46.5 11.5t-53.5 4.5
q-57 0 -107 -30.5t-76 -99.5h253l-24 -84h-249q-3 -23 -3 -49q0 -8 0.5 -18.5t1.5 -18.5h229l-24 -83h-187q23 -68 73 -106t125 -38q32 0 64.5 6.5t54.5 14.5v-101z" />
    <glyph glyph-name="trademark" unicode="&#x2122;" horiz-adv-x="604" 
d="M527 459h-63l-7 110q-1 17 -1 26v17h-3q-2 -8 -3.5 -18.5t-6.5 -24.5l-36 -110h-48l-32 103q-6 18 -8.5 29.5t-4.5 20.5h-2v-18.5t-2 -27.5l-7 -107h-64l19 223h86l30 -93q5 -16 7 -23t3 -12h1q2 8 4 15t7 21l29 92h85zM52 682h178v-57h-58v-166h-63v166h-57v57z" />
    <glyph glyph-name="glyph221" horiz-adv-x="324" 
d="M289 814l-190 -80l-33 71l182 97z" />
    <glyph glyph-name="glyph222" horiz-adv-x="324" 
d="M317 796l-32 -62l-123 59l-123 -59l-32 62l155 101z" />
    <glyph glyph-name="glyph223" horiz-adv-x="324" 
d="M20 875h105v-102h-105v102zM200 875h105v-102h-105v102z" />
    <glyph glyph-name="glyph224" horiz-adv-x="324" 
d="M77 902l182 -97l-34 -71l-190 80z" />
    <glyph glyph-name="glyph225" horiz-adv-x="324" 
d="M102 842q0 -26 18 -43.5t44 -17.5q25 0 42 17.5t17 43.5q0 25 -17 42t-42 17q-26 0 -44 -17t-18 -42zM37 842q0 26 9.5 48.5t27 39.5t40.5 27t50 10q26 0 48.5 -10t39.5 -27t27 -39.5t10 -48.5q0 -27 -10 -50t-27 -40t-39.5 -27t-48.5 -10q-27 0 -50 10t-40.5 27t-27 40
t-9.5 50z" />
    <glyph glyph-name="glyph226" horiz-adv-x="324" 
d="M-7 770q3 55 27 91.5t75 36.5q22 0 38.5 -7.5t36.5 -22.5q37 -28 60 -28q12 0 20.5 10t9.5 39h71q-2 -63 -27.5 -95.5t-75.5 -32.5q-23 0 -42.5 7.5t-38.5 21.5q-20 16 -31 22.5t-22 6.5q-27 0 -30 -49h-71z" />
    <glyph glyph-name="glyph227" horiz-adv-x="324" 
d="M7 835l32 62l123 -59l124 59l31 -62l-155 -101z" />
  </font>
</defs>
</svg>
